<svg width="200" height="221" viewBox="0 0 200 221" fill="none" xmlns="http://www.w3.org/2000/svg">
<path d="M99.8441 220.557C132.694 220.557 159.324 216.356 159.324 211.174C159.324 205.991 132.694 201.79 99.8441 201.79C66.9943 201.79 40.3643 205.991 40.3643 211.174C40.3643 216.356 66.9943 220.557 99.8441 220.557Z" fill="#E5E5E5"/>
<path d="M93.5988 174.444C93.2515 174.144 92.7996 174.027 92.3644 173.927C83.8075 171.916 75.0456 170.961 66.2962 171.086L66.3422 170.669C65.4342 172.6 64.4634 188.88 62.8274 190.099C61.5679 191.037 60.0365 191.409 58.5929 191.934C55.4546 193.086 52.4545 195.214 50.9398 198.443C49.4251 201.672 49.7891 206.095 52.3541 208.394C53.4043 209.333 54.7057 209.858 56.0028 210.296C58.3376 211.089 60.731 211.661 63.1454 212.078C67.3213 212.795 71.5558 213.033 75.7778 213.221C80.2843 213.426 84.8368 213.572 89.268 212.662C90.1676 212.478 91.0798 212.241 91.8623 211.711C93.1594 210.835 93.9335 209.257 94.3938 207.659C95.08 205.265 95.1762 202.724 95.2265 200.212C95.2976 196.862 95.2892 179.176 94.3938 175.971C94.2348 175.4 94.0297 174.812 93.6029 174.44L93.5988 174.444Z" fill="#0EC189"/>
<path d="M148.504 197.092C146.805 193.954 143.692 192.002 140.491 191.029C139.018 190.583 137.47 190.299 136.16 189.436C134.453 188.313 132.558 172.113 131.541 170.235L131.612 170.648C122.871 171.019 114.176 172.471 105.749 174.962C105.322 175.087 104.879 175.229 104.548 175.55C104.142 175.943 103.971 176.548 103.845 177.123C103.134 180.374 104.138 198.03 104.397 201.372C104.594 203.876 104.833 206.408 105.653 208.757C106.201 210.326 107.063 211.853 108.41 212.658C109.218 213.142 110.142 213.326 111.05 213.459C115.528 214.119 120.063 213.714 124.553 213.255C128.758 212.825 132.972 212.35 137.102 211.394C139.487 210.843 141.847 210.134 144.132 209.212C145.399 208.699 146.671 208.106 147.663 207.109C150.09 204.668 150.203 200.233 148.508 197.096L148.504 197.092Z" fill="#0EC189"/>
<path d="M33.4063 149.082C27.929 130.925 29.7074 110.126 34.1595 93.0952C36.6491 83.5575 39.2392 73.5442 48.4112 67.2525C56.7882 61.5031 65.5669 67.7656 69.6549 74.7666C73.1404 80.7371 74.4543 87.4252 78.1407 93.2997C78.6303 94.0841 79.4839 93.6919 79.965 93.1829C81.3835 91.6892 83.3167 90.6461 85.3 89.8159C87.342 88.9606 89.4885 88.2304 91.6393 87.6213C92.0828 87.4961 92.5263 87.3751 92.974 87.2625C93.677 87.0831 94.3883 86.9162 95.0997 86.7576C100.481 85.556 107.176 86.6366 111.331 90.2331C114.837 93.2663 113.184 94.6098 118.243 93.6209C128.177 91.685 141.165 90.2706 144.412 101.64C144.039 100.338 154.584 101.181 155.354 101.248C157.555 101.436 159.793 101.874 161.597 102.996C166.266 105.908 168.153 111.174 168.844 115.942C170.296 125.918 169.798 136.799 167.953 146.725C166.229 155.996 162.45 165.158 155.425 172.388C148.215 179.807 138.047 184.726 127.344 187.404C105.401 192.895 77.2285 193.458 57.8803 181.605C44.9131 173.661 37.3102 162.045 33.4021 149.087L33.4063 149.082Z" fill="black"/>
<path d="M89.3503 127.997C90.2792 129.791 90.819 131.889 90.819 134.13C90.819 140.734 86.1828 146.087 80.4586 146.087C74.7345 146.087 70.0983 140.734 70.0983 134.13C70.0983 129.641 72.2407 125.735 75.4082 123.691L62.6335 119.744C59.8258 122.406 57.763 125.906 56.8926 129.97C54.5871 140.697 61.441 151.257 72.1988 153.556C82.9567 155.855 93.5471 149.021 95.8527 138.294C96.4594 135.473 96.4259 132.661 95.8611 130.012L89.3461 128.001L89.3503 127.997Z" fill="white"/>
<path d="M70.1025 134.129C70.1025 140.734 74.7387 146.087 80.4629 146.087C86.187 146.087 90.8232 140.734 90.8232 134.129C90.8232 131.885 90.2876 129.79 89.3545 127.996L75.4166 123.69C72.2491 125.735 70.1067 129.644 70.1067 134.129H70.1025Z" fill="#0EC189"/>
<path d="M110.344 127.997C109.416 129.791 108.876 131.889 108.876 134.13C108.876 140.734 113.512 146.087 119.236 146.087C124.96 146.087 129.596 140.734 129.596 134.13C129.596 129.641 127.454 125.735 124.287 123.691L137.061 119.744C139.869 122.406 141.932 125.906 142.802 129.97C145.108 140.697 138.254 151.257 127.496 153.556C116.738 155.855 106.148 149.021 103.842 138.294C103.235 135.473 103.269 132.661 103.834 130.012L110.349 128.001L110.344 127.997Z" fill="white"/>
<path d="M129.59 134.129C129.59 140.734 124.954 146.087 119.229 146.087C113.505 146.087 108.869 140.734 108.869 134.129C108.869 131.885 109.405 129.79 110.338 127.996L124.276 123.69C127.443 125.735 129.586 129.644 129.586 134.129H129.59Z" fill="#0EC189"/>
<path d="M98.1645 160.235C94.2313 160.235 91.8085 158.637 91.6412 158.52C91.3566 158.324 91.2813 157.936 91.478 157.652C91.6746 157.368 92.0638 157.293 92.3483 157.489C92.6161 157.669 99.0474 161.858 108.32 155.374C108.604 155.174 108.993 155.245 109.194 155.528C109.395 155.812 109.324 156.2 109.04 156.4C104.788 159.371 101.064 160.239 98.1645 160.239V160.235Z" fill="white"/>
<path d="M89.4354 115.624C89.4061 115.624 89.3769 115.624 89.3476 115.62L69.0286 112.791C68.6855 112.745 68.447 112.428 68.493 112.086C68.539 111.744 68.857 111.506 69.2001 111.552L89.5191 114.381C89.8622 114.427 90.1007 114.744 90.0547 115.086C90.0129 115.399 89.7409 115.624 89.4354 115.624Z" fill="white"/>
<path d="M109.909 115.626C109.599 115.626 109.332 115.4 109.29 115.083C109.244 114.741 109.482 114.424 109.825 114.378L130.462 111.549C130.801 111.499 131.124 111.741 131.17 112.083C131.216 112.426 130.977 112.743 130.634 112.789L109.997 115.617C109.968 115.617 109.938 115.622 109.909 115.622V115.626Z" fill="white"/>
<g filter="url(#filter0_d_3625_27775)">
<path d="M173 1C185.15 1 195 10.8497 195 23C195 35.1503 185.15 45 173 45H108.34L100.768 54.0791C100.368 54.5582 99.6322 54.5582 99.2324 54.0791L91.6602 45H27C14.8497 45 5 35.1503 5 23C5 10.8497 14.8497 1 27 1H173Z" fill="white"/>
<path d="M34.5156 30.3594H33.0312V22.5781H30.1406V21.3594H33.0312V16.3281H34.5156V30.3594ZM27.8281 20.2656C27.8281 21.0521 27.9818 21.8385 28.2891 22.625C28.5964 23.4115 29.026 24.1172 29.5781 24.7422C30.1354 25.362 30.7656 25.8281 31.4688 26.1406L30.5781 27.3281C29.7812 26.9427 29.0781 26.3698 28.4688 25.6094C27.8646 24.8438 27.4062 23.9766 27.0938 23.0078C26.776 24.0391 26.3099 24.9635 25.6953 25.7812C25.0807 26.5938 24.375 27.2031 23.5781 27.6094L22.6719 26.4531C23.3698 26.1198 23.9948 25.6276 24.5469 24.9766C25.1042 24.3203 25.5391 23.5807 25.8516 22.7578C26.1641 21.9297 26.3229 21.099 26.3281 20.2656V18.9531H23.2344V17.7344H30.9375V18.9531H27.8281V20.2656ZM38.9531 22.9531C40.0677 22.9427 41.0469 22.9062 41.8906 22.8438C42.7396 22.776 43.599 22.6615 44.4688 22.5L44.6562 23.7188C43.7135 23.9062 42.7734 24.0339 41.8359 24.1016C40.9036 24.1693 39.8021 24.2031 38.5312 24.2031H37.4844V17.1562H38.9531V22.9531ZM48.3281 30.3281H46.8438V26.6094H38.8281V25.4062H48.3281V30.3281ZM48.3281 24.7812H46.8438V21.6094H43.0312V20.4688H46.8438V19.0938H43.0312V17.9531H46.8438V16.3281H48.3281V24.7812ZM59.5312 19.8906C59.526 20.7344 59.6797 21.5651 59.9922 22.3828C60.3099 23.1953 60.75 23.9193 61.3125 24.5547C61.8802 25.1901 62.5208 25.6667 63.2344 25.9844L62.3438 27.1562C61.5469 26.776 60.8411 26.2161 60.2266 25.4766C59.612 24.7318 59.138 23.8776 58.8047 22.9141C58.4766 23.9505 57.9974 24.8672 57.3672 25.6641C56.7422 26.4609 56.0156 27.0625 55.1875 27.4688L54.2812 26.2188C55.0052 25.8958 55.651 25.4062 56.2188 24.75C56.7917 24.0938 57.237 23.3411 57.5547 22.4922C57.8724 21.638 58.0312 20.7708 58.0312 19.8906V17.5H59.5312V19.8906ZM65.9844 30.3594H64.5V16.3281H65.9844V30.3594ZM79.2188 20.4688H81.25V21.7031H79.2188V26.5H77.7188V16.3281H79.2188V20.4688ZM75.4219 17.3906C75.4219 18.599 75.1589 19.7005 74.6328 20.6953C74.1068 21.6901 73.349 22.5495 72.3594 23.2734C71.375 23.9922 70.1979 24.5573 68.8281 24.9688L68.2031 23.7812C69.2917 23.4531 70.237 23.0339 71.0391 22.5234C71.8464 22.013 72.4844 21.4271 72.9531 20.7656C73.4271 20.1042 73.7109 19.3906 73.8047 18.625H68.7969V17.3906H75.4219ZM79.7969 30.0312H70.3281V25.4531H71.8281V28.8281H79.7969V30.0312ZM90.8125 27.375H93.875V24.2969H95.3438V27.375H98.7656V28.5781H85.9531V27.375H89.3594V24.2969H90.8125V27.375ZM93.0625 18.2656C93.0625 18.9635 93.2995 19.638 93.7734 20.2891C94.2526 20.9349 94.888 21.4844 95.6797 21.9375C96.4714 22.3906 97.3125 22.6875 98.2031 22.8281L97.6094 24.0625C96.8385 23.9167 96.1042 23.6745 95.4062 23.3359C94.7083 22.9974 94.0885 22.5781 93.5469 22.0781C93.0052 21.5781 92.5833 21.0208 92.2812 20.4062C91.974 21.0208 91.5495 21.5807 91.0078 22.0859C90.4714 22.5859 89.8568 23.0052 89.1641 23.3438C88.4714 23.6823 87.7448 23.9219 86.9844 24.0625L86.375 22.8281C87.2656 22.6823 88.1042 22.3828 88.8906 21.9297C89.6823 21.4766 90.3151 20.9271 90.7891 20.2812C91.263 19.6302 91.5 18.9583 91.5 18.2656V17.2031H93.0625V18.2656ZM108 18.7031H106.656V22.5547C107.245 22.513 107.906 22.4479 108.641 22.3594L108.734 23.4688C107.464 23.6771 106.112 23.8151 104.68 23.8828C103.253 23.9505 101.755 23.9844 100.188 23.9844L100.016 22.7656C100.75 22.7656 101.318 22.763 101.719 22.7578V18.7031H100.391V17.4844H108V18.7031ZM111.391 24.875H109.906V16.3438H111.391V24.875ZM106.719 25.1719C107.703 25.1719 108.552 25.2708 109.266 25.4688C109.979 25.6667 110.526 25.9583 110.906 26.3438C111.292 26.724 111.484 27.1823 111.484 27.7188C111.484 28.2604 111.292 28.724 110.906 29.1094C110.526 29.5 109.977 29.7969 109.258 30C108.544 30.2031 107.698 30.3021 106.719 30.2969C105.734 30.3021 104.883 30.2031 104.164 30C103.451 29.7969 102.904 29.5 102.523 29.1094C102.143 28.724 101.953 28.2604 101.953 27.7188C101.953 27.1823 102.143 26.724 102.523 26.3438C102.904 25.9583 103.451 25.6667 104.164 25.4688C104.878 25.2708 105.729 25.1719 106.719 25.1719ZM106.719 26.3125C105.677 26.3125 104.867 26.4375 104.289 26.6875C103.711 26.9323 103.422 27.276 103.422 27.7188C103.422 28.1771 103.711 28.5312 104.289 28.7812C104.867 29.0312 105.677 29.1562 106.719 29.1562C107.76 29.1562 108.568 29.0312 109.141 28.7812C109.714 28.5312 110 28.1771 110 27.7188C110 27.2708 109.714 26.9245 109.141 26.6797C108.568 26.4349 107.76 26.3125 106.719 26.3125ZM103.141 22.7266C103.922 22.7109 104.62 22.6849 105.234 22.6484V18.7031H103.141V22.7266ZM119.984 16.5625C121.036 16.5625 121.935 16.6562 122.68 16.8438C123.43 17.026 124 17.2969 124.391 17.6562C124.786 18.0156 124.984 18.4531 124.984 18.9688C124.984 19.4844 124.786 19.9245 124.391 20.2891C124 20.6484 123.43 20.9219 122.68 21.1094C121.935 21.2969 121.036 21.3906 119.984 21.3906C118.932 21.3906 118.031 21.2969 117.281 21.1094C116.536 20.9219 115.966 20.6484 115.57 20.2891C115.18 19.9245 114.984 19.4844 114.984 18.9688C114.984 18.4531 115.18 18.0156 115.57 17.6562C115.966 17.2969 116.536 17.026 117.281 16.8438C118.031 16.6562 118.932 16.5625 119.984 16.5625ZM119.984 17.6562C118.87 17.6562 118.013 17.7708 117.414 18C116.815 18.2292 116.521 18.5521 116.531 18.9688C116.526 19.3958 116.818 19.7214 117.406 19.9453C118 20.1693 118.859 20.2812 119.984 20.2812C121.104 20.2812 121.961 20.1693 122.555 19.9453C123.154 19.7214 123.453 19.3958 123.453 18.9688C123.453 18.5521 123.151 18.2292 122.547 18C121.948 17.7708 121.094 17.6562 119.984 17.6562ZM126.375 23.4375H113.609V22.25H126.375V23.4375ZM124.766 27.7969H116.609V29.0469H125.156V30.1875H115.156V26.7188H123.297V25.625H115.141V24.5156H124.766V27.7969ZM144.109 25.4219H138.422V30.3125H136.969V25.4219H131.344V24.2188H144.109V25.4219ZM142.906 18.3438H138.578C138.583 18.9115 138.802 19.4531 139.234 19.9688C139.672 20.4792 140.258 20.9141 140.992 21.2734C141.727 21.6276 142.531 21.8646 143.406 21.9844L142.859 23.1562C142.094 23.0365 141.372 22.8359 140.695 22.5547C140.018 22.2682 139.424 21.9141 138.914 21.4922C138.404 21.0651 138.008 20.5885 137.727 20.0625C137.305 20.8542 136.635 21.5234 135.719 22.0703C134.807 22.612 133.776 22.974 132.625 23.1562L132.062 21.9844C132.927 21.8646 133.724 21.6276 134.453 21.2734C135.188 20.9141 135.773 20.4792 136.211 19.9688C136.648 19.4531 136.875 18.9115 136.891 18.3438H132.531V17.1562H142.906V18.3438ZM149.734 17.3281C150.464 17.3229 151.117 17.4609 151.695 17.7422C152.273 18.0234 152.724 18.4193 153.047 18.9297C153.375 19.4349 153.542 20.0104 153.547 20.6562C153.542 21.3021 153.375 21.8802 153.047 22.3906C152.724 22.8958 152.273 23.2917 151.695 23.5781C151.117 23.8594 150.464 24 149.734 24C149.005 24 148.349 23.8594 147.766 23.5781C147.188 23.2917 146.734 22.8958 146.406 22.3906C146.078 21.8802 145.917 21.3021 145.922 20.6562C145.917 20.0104 146.078 19.4349 146.406 18.9297C146.734 18.4193 147.188 18.0234 147.766 17.7422C148.349 17.4609 149.005 17.3229 149.734 17.3281ZM149.734 18.6094C149.281 18.6094 148.875 18.6953 148.516 18.8672C148.161 19.0339 147.883 19.2734 147.68 19.5859C147.482 19.8932 147.385 20.25 147.391 20.6562C147.385 21.0625 147.482 21.4219 147.68 21.7344C147.883 22.0417 148.161 22.2812 148.516 22.4531C148.875 22.6198 149.281 22.7031 149.734 22.7031C150.188 22.7031 150.591 22.6198 150.945 22.4531C151.305 22.2812 151.586 22.0417 151.789 21.7344C151.992 21.4219 152.094 21.0625 152.094 20.6562C152.094 20.25 151.992 19.8932 151.789 19.5859C151.586 19.2734 151.305 19.0339 150.945 18.8672C150.591 18.6953 150.188 18.6094 149.734 18.6094ZM156.75 30.3594H155.266V16.3281H156.75V30.3594ZM145.25 26.1094C146.979 26.1094 148.594 26.0807 150.094 26.0234C151.599 25.9609 153.031 25.8333 154.391 25.6406L154.5 26.7188C153.104 26.9896 151.685 27.1615 150.242 27.2344C148.805 27.3073 147.203 27.3438 145.438 27.3438L145.25 26.1094ZM165.922 19.8438H158.969V18.6406H161.719V16.7344H163.188V18.6406H165.922V19.8438ZM162.453 20.6875C163.042 20.6875 163.565 20.8255 164.023 21.1016C164.482 21.3724 164.841 21.7526 165.102 22.2422C165.362 22.7266 165.495 23.2812 165.5 23.9062C165.495 24.5365 165.362 25.099 165.102 25.5938C164.841 26.0833 164.482 26.4661 164.023 26.7422C163.565 27.0182 163.042 27.1562 162.453 27.1562C161.875 27.1562 161.354 27.0182 160.891 26.7422C160.427 26.4661 160.065 26.0807 159.805 25.5859C159.544 25.0911 159.417 24.5312 159.422 23.9062C159.417 23.2865 159.544 22.7318 159.805 22.2422C160.065 21.7526 160.427 21.3724 160.891 21.1016C161.354 20.8255 161.875 20.6875 162.453 20.6875ZM162.453 21.9219C162.12 21.9219 161.823 22.0078 161.562 22.1797C161.302 22.3464 161.099 22.5807 160.953 22.8828C160.807 23.1849 160.734 23.526 160.734 23.9062C160.734 24.2969 160.807 24.6432 160.953 24.9453C161.099 25.2422 161.302 25.474 161.562 25.6406C161.823 25.8073 162.12 25.8906 162.453 25.8906C162.786 25.8906 163.083 25.8073 163.344 25.6406C163.609 25.474 163.815 25.2422 163.961 24.9453C164.112 24.6432 164.188 24.2969 164.188 23.9062C164.188 23.526 164.112 23.1849 163.961 22.8828C163.815 22.5807 163.609 22.3464 163.344 22.1797C163.078 22.0078 162.781 21.9219 162.453 21.9219ZM170.984 30.3281H169.578V23.375H167.969V29.6719H166.562V16.6406H167.969V22.1562H169.578V16.3281H170.984V30.3281ZM175.266 25.7344H173.719L173.578 17.6875H175.406L175.266 25.7344ZM174.5 29.1094C174.302 29.1094 174.115 29.0599 173.938 28.9609C173.766 28.862 173.63 28.7266 173.531 28.5547C173.432 28.3828 173.385 28.1979 173.391 28C173.385 27.8021 173.432 27.6172 173.531 27.4453C173.63 27.2734 173.766 27.138 173.938 27.0391C174.115 26.9401 174.302 26.8906 174.5 26.8906C174.693 26.8906 174.875 26.9401 175.047 27.0391C175.219 27.138 175.354 27.2734 175.453 27.4453C175.557 27.6172 175.609 27.8021 175.609 28C175.609 28.1979 175.557 28.3828 175.453 28.5547C175.354 28.7266 175.219 28.862 175.047 28.9609C174.875 29.0599 174.693 29.1094 174.5 29.1094Z" fill="#202020"/>
</g>
<defs>
<filter id="filter0_d_3625_27775" x="0" y="0" width="200" height="63.4384" filterUnits="userSpaceOnUse" color-interpolation-filters="sRGB">
<feFlood flood-opacity="0" result="BackgroundImageFix"/>
<feColorMatrix in="SourceAlpha" type="matrix" values="0 0 0 0 0 0 0 0 0 0 0 0 0 0 0 0 0 0 127 0" result="hardAlpha"/>
<feOffset dy="4"/>
<feGaussianBlur stdDeviation="2.5"/>
<feComposite in2="hardAlpha" operator="out"/>
<feColorMatrix type="matrix" values="0 0 0 0 0 0 0 0 0 0 0 0 0 0 0 0 0 0 0.01 0"/>
<feBlend mode="normal" in2="BackgroundImageFix" result="effect1_dropShadow_3625_27775"/>
<feBlend mode="normal" in="SourceGraphic" in2="effect1_dropShadow_3625_27775" result="shape"/>
</filter>
</defs>
</svg>
