<svg width="28" height="28" viewBox="0 0 28 28" fill="none" xmlns="http://www.w3.org/2000/svg">
<mask id="mask0_3774_1392" style="mask-type:alpha" maskUnits="userSpaceOnUse" x="0" y="0" width="28" height="28">
<rect width="28" height="28" fill="#D9D9D9"/>
</mask>
<g mask="url(#mask0_3774_1392)">
<path d="M12.308 16.4702L9.56634 13.7285C9.37831 13.5405 9.14498 13.4465 8.86634 13.4465C8.5877 13.4465 8.34786 13.5469 8.1468 13.7478C7.95897 13.9358 7.86505 14.1691 7.86505 14.4478C7.86505 14.7266 7.95897 14.9599 8.1468 15.1478L11.6276 18.6478C11.822 18.8422 12.0488 18.9394 12.308 18.9394C12.5672 18.9394 12.794 18.8422 12.9885 18.6478L19.833 11.8035C20.0339 11.6025 20.1343 11.3626 20.1343 11.084C20.1343 10.8053 20.0339 10.5655 19.833 10.3644C19.6322 10.1766 19.3891 10.0859 19.1038 10.0923C18.8186 10.0987 18.5821 10.196 18.3942 10.384L12.308 16.4702ZM13.9997 25.6673C12.3988 25.6673 10.8887 25.3611 9.46922 24.7486C8.04977 24.1361 6.81174 23.3016 5.75513 22.2452C4.69872 21.1886 3.86426 19.9506 3.25176 18.5311C2.63926 17.1117 2.33301 15.6015 2.33301 14.0007C2.33301 12.3868 2.63926 10.8701 3.25176 9.45065C3.86426 8.03121 4.69872 6.79648 5.75513 5.74648C6.81174 4.69648 8.04977 3.86523 9.46922 3.25273C10.8887 2.64023 12.3988 2.33398 13.9997 2.33398C15.6136 2.33398 17.1302 2.64023 18.5497 3.25273C19.9691 3.86523 21.2038 4.69648 22.2538 5.74648C23.3038 6.79648 24.1351 8.03121 24.7476 9.45065C25.3601 10.8701 25.6663 12.3868 25.6663 14.0007C25.6663 15.6015 25.3601 17.1117 24.7476 18.5311C24.1351 19.9506 23.3038 21.1886 22.2538 22.2452C21.2038 23.3016 19.9691 24.1361 18.5497 24.7486C17.1302 25.3611 15.6136 25.6673 13.9997 25.6673Z" fill="#0EC189"/>
</g>
</svg>
