<svg width="150" height="168" viewBox="0 0 150 168" fill="none" xmlns="http://www.w3.org/2000/svg">
<path d="M74.9993 167.523C110.274 167.523 138.87 162.999 138.87 157.418C138.87 151.837 110.274 147.312 74.9993 147.312C39.7246 147.312 11.1289 151.837 11.1289 157.418C11.1289 162.999 39.7246 167.523 74.9993 167.523Z" fill="#E8E8E8"/>
<path d="M68.2933 117.863C67.9203 117.54 67.4351 117.414 66.9678 117.306C57.7792 115.14 48.3705 114.111 38.9753 114.246L39.0247 113.797C38.0497 115.877 37.0073 133.41 35.2505 134.722C33.898 135.733 32.2535 136.132 30.7034 136.699C27.3335 137.939 24.1119 140.23 22.4854 143.708C20.8589 147.186 21.2498 151.948 24.0041 154.424C25.1319 155.435 26.5292 156.001 27.9221 156.473C30.4293 157.327 32.9994 157.942 35.592 158.392C40.0761 159.164 44.6232 159.421 49.1568 159.623C53.996 159.843 58.8846 160 63.6428 159.021C64.6088 158.823 65.5884 158.567 66.4286 157.996C67.8215 157.053 68.6527 155.354 69.1469 153.633C69.8838 151.054 69.9872 148.318 70.0411 145.613C70.1175 142.005 70.1085 122.958 69.1469 119.508C68.9762 118.892 68.756 118.259 68.2977 117.859L68.2933 117.863Z" fill="#0EC189"/>
<path d="M127.252 142.253C125.427 138.874 122.085 136.771 118.647 135.724C117.066 135.243 115.403 134.938 113.997 134.008C112.164 132.799 110.128 115.352 109.036 113.33L109.113 113.775C99.7266 114.175 90.3898 115.738 81.3405 118.421C80.8822 118.556 80.4059 118.708 80.051 119.054C79.6151 119.477 79.4309 120.128 79.2961 120.748C78.5323 124.248 79.6107 143.264 79.8892 146.863C80.1004 149.558 80.3565 152.286 81.2372 154.816C81.8258 156.505 82.7514 158.149 84.1982 159.017C85.0654 159.538 86.0583 159.736 87.0334 159.879C91.8411 160.589 96.7117 160.153 101.533 159.659C106.048 159.196 110.573 158.684 115.008 157.655C117.569 157.062 120.103 156.298 122.556 155.305C123.918 154.753 125.284 154.115 126.349 153.041C128.955 150.412 129.076 145.636 127.256 142.257L127.252 142.253Z" fill="#0EC189"/>
<path d="M3.65773 90.5502C-2.22383 70.996 -0.314235 48.5975 4.4665 30.2564C7.13993 19.985 9.9212 9.20143 19.7702 2.42573C28.7656 -3.76586 38.1922 2.97839 42.582 10.5179C46.3249 16.9476 47.7357 24.1502 51.6942 30.4766C52.2199 31.3213 53.1365 30.8989 53.6532 30.3508C55.1764 28.7422 57.2522 27.6189 59.382 26.7248C61.5747 25.8037 63.8797 25.0174 66.1891 24.3614C66.6654 24.2266 67.1417 24.0963 67.6225 23.975C68.3773 23.7818 69.1412 23.602 69.905 23.4313C75.6832 22.1373 82.8723 23.301 87.334 27.1741C91.0993 30.4406 89.3245 31.8874 94.7567 30.8225C105.423 28.7377 119.37 27.2145 122.857 39.4584C122.457 38.0565 133.78 38.9642 134.607 39.0361C136.97 39.2383 139.374 39.71 141.31 40.9187C146.325 44.0549 148.351 49.7253 149.093 54.861C150.652 65.6042 150.117 77.3223 148.136 88.0116C146.284 97.9954 142.227 107.862 134.683 115.649C126.941 123.638 116.023 128.935 104.529 131.82C80.9672 137.733 50.7147 138.34 29.9383 125.574C16.0139 117.019 7.84985 104.51 3.65323 90.5547L3.65773 90.5502Z" fill="#202020"/>
<path d="M63.7312 67.8426C64.7287 69.7746 65.3083 72.0347 65.3083 74.4475C65.3083 81.5602 60.3299 87.3249 54.1833 87.3249C48.0366 87.3249 43.0582 81.5602 43.0582 74.4475C43.0582 69.6129 45.3587 65.4073 48.76 63.2056L35.0424 58.9551C32.0274 61.8217 29.8123 65.5915 28.8777 69.9678C26.402 81.5198 33.7618 92.892 45.3137 95.3677C56.8657 97.8434 68.2379 90.4836 70.7136 78.9317C71.3651 75.8943 71.3292 72.8659 70.7226 70.0128L63.7267 67.8471L63.7312 67.8426Z" fill="white"/>
<path d="M43.0625 74.447C43.0625 81.5597 48.0409 87.3244 54.1876 87.3244C60.3342 87.3244 65.3127 81.5597 65.3127 74.447C65.3127 72.0297 64.7375 69.7741 63.7356 67.842L48.7688 63.2051C45.3675 65.4067 43.067 69.6168 43.067 74.447H43.0625Z" fill="#0EC189"/>
<path d="M86.2751 67.8426C85.2776 69.7746 84.698 72.0347 84.698 74.4475C84.698 81.5602 89.6764 87.3249 95.8231 87.3249C101.97 87.3249 106.948 81.5602 106.948 74.4475C106.948 69.6129 104.648 65.4073 101.246 63.2056L114.964 58.9551C117.979 61.8217 120.194 65.5915 121.129 69.9678C123.604 81.5198 116.245 92.892 104.693 95.3677C93.1407 97.8434 81.7685 90.4836 79.2927 78.9317C78.6412 75.8943 78.6772 72.8659 79.2837 70.0128L86.2796 67.8471L86.2751 67.8426Z" fill="white"/>
<path d="M106.942 74.447C106.942 81.5597 101.963 87.3244 95.8165 87.3244C89.6698 87.3244 84.6914 81.5597 84.6914 74.447C84.6914 72.0297 85.2665 69.7741 86.2685 67.842L101.235 63.2051C104.637 65.4067 106.937 69.6168 106.937 74.447H106.942Z" fill="#0EC189"/>
<path d="M73.1964 102.56C68.9729 102.56 66.3713 100.84 66.1916 100.714C65.8861 100.503 65.8052 100.085 66.0164 99.7792C66.2275 99.4737 66.6454 99.3928 66.9509 99.604C67.2385 99.7972 74.1445 104.308 84.1014 97.3259C84.4069 97.1103 84.8248 97.1867 85.0404 97.4922C85.2561 97.7977 85.1797 98.2156 84.8742 98.4313C80.3091 101.63 76.3102 102.565 73.1964 102.565V102.56Z" fill="white"/>
<path d="M63.8225 54.5184C63.7911 54.5184 63.7596 54.5184 63.7282 54.5139L41.9094 51.4675C41.5409 51.4181 41.2848 51.0766 41.3342 50.7082C41.3837 50.3397 41.7251 50.0836 42.0936 50.1331L63.9124 53.1794C64.2808 53.2288 64.537 53.5703 64.4875 53.9388C64.4426 54.2758 64.1505 54.5184 63.8225 54.5184Z" fill="white"/>
<path d="M85.8078 54.5199C85.4753 54.5199 85.1878 54.2773 85.1428 53.9358C85.0934 53.5674 85.3495 53.2259 85.7179 53.1765L107.878 50.1301C108.242 50.0762 108.588 50.3368 108.638 50.7052C108.687 51.0737 108.431 51.4152 108.062 51.4646L85.9022 54.511C85.8707 54.511 85.8393 54.5154 85.8078 54.5154V54.5199Z" fill="white"/>
</svg>
