<svg width="214" height="226" viewBox="0 0 214 226" fill="none" xmlns="http://www.w3.org/2000/svg">
<path d="M8.00195 67C8.03998 67 8.07804 67.0038 8.1123 67.0156C8.13503 67.0195 8.15776 67.0274 8.17676 67.0352C8.2377 67.0586 8.29105 67.0983 8.33691 67.1416C8.35594 67.1612 8.37145 67.1806 8.38672 67.2002C8.41722 67.2431 8.4437 67.286 8.45898 67.3369L9.70996 71.1338C10.1561 72.4892 11.2076 73.5476 12.5342 73.9785L15.6074 74.9736C15.8437 75.0482 15.9998 75.271 16 75.5215C16 75.7604 15.8588 75.9762 15.6416 76.0625L12.2832 77.3867C11.1014 77.8529 10.1748 78.8245 9.74023 80.0508L8.46289 83.667C8.45389 83.6941 8.43409 83.714 8.4209 83.7383C8.41008 83.7582 8.39906 83.7777 8.38574 83.7959C8.36526 83.8238 8.34483 83.8488 8.31934 83.8711C8.27998 83.9072 8.23684 83.939 8.18848 83.9609C8.15813 83.9727 8.128 83.9844 8.09766 83.9883C8.06715 83.996 8.03637 84 8.00586 84L7.90625 83.9883C7.8759 83.9844 7.84578 83.9725 7.81543 83.9609C7.76517 83.9386 7.72067 83.9062 7.68066 83.8691C7.6562 83.8472 7.63629 83.8228 7.61621 83.7959C7.60479 83.7803 7.59549 83.7639 7.58594 83.7471C7.57004 83.72 7.54822 83.6973 7.53711 83.667L6.25977 80.0508C5.82897 78.8246 4.90248 77.853 3.7207 77.3867L0.362305 76.0625C0.145121 75.9764 0 75.7604 0 75.5215C6.28108e-05 75.2709 0.160277 75.048 0.392578 74.9736L3.46484 73.9785C4.79533 73.5476 5.84405 72.4893 6.29395 71.1338L7.54395 67.3369C7.55922 67.2939 7.57876 67.255 7.60156 67.2197C7.61685 67.1963 7.63244 67.1721 7.65527 67.1523C7.70083 67.1018 7.75775 67.0624 7.82617 67.0352C7.84511 67.0275 7.86794 67.0195 7.89062 67.0156C7.92497 67.0038 7.96384 67 8.00195 67ZM19.5 47C20.8807 47 22 48.1193 22 49.5C22 50.8807 20.8807 52 19.5 52C18.1193 52 17 50.8807 17 49.5C17 48.1193 18.1193 47 19.5 47ZM189.003 18C189.07 18 189.136 18.0062 189.196 18.0264C189.236 18.033 189.276 18.0473 189.31 18.0605C189.416 18.1006 189.51 18.1674 189.59 18.2412C189.623 18.2745 189.65 18.3075 189.677 18.3408C189.73 18.4143 189.777 18.4882 189.804 18.5752L191.992 25.0518C192.773 27.3641 194.614 29.1692 196.936 29.9043L202.312 31.6016C202.727 31.7286 203 32.1095 203 32.5371C203 32.9447 202.753 33.3127 202.373 33.46L196.495 35.7188C194.427 36.5141 192.806 38.172 192.046 40.2637L189.811 46.4326C189.795 46.4787 189.759 46.5113 189.736 46.5527C189.717 46.5868 189.699 46.6212 189.676 46.6523C189.64 46.6999 189.604 46.7422 189.56 46.7803C189.491 46.842 189.415 46.8961 189.33 46.9336C189.277 46.9538 189.223 46.9729 189.17 46.9795C189.116 46.9927 189.063 47 189.01 47L188.837 46.9795C188.784 46.9729 188.73 46.9534 188.677 46.9336C188.589 46.8954 188.511 46.8395 188.441 46.7764C188.399 46.739 188.363 46.6981 188.328 46.6523C188.308 46.6255 188.292 46.5964 188.275 46.5674C188.248 46.5213 188.209 46.4833 188.189 46.4316L185.954 40.2627C185.2 38.1709 183.579 36.5131 181.511 35.7178L175.634 33.459C175.254 33.3121 175 32.9446 175 32.5371C175 32.1093 175.281 31.7282 175.688 31.6016L181.064 29.9043C183.393 29.1692 185.227 27.3642 186.015 25.0518L188.202 18.5752C188.229 18.5019 188.263 18.4352 188.303 18.375C188.329 18.3351 188.356 18.2945 188.396 18.2607C188.475 18.1741 188.576 18.1072 188.696 18.0605C188.73 18.0473 188.77 18.033 188.81 18.0264C188.87 18.0062 188.936 18 189.003 18ZM23.5 36C24.3284 36 25 36.8954 25 38C25 39.1046 24.3284 40 23.5 40C22.6716 40 22 39.1046 22 38C22 36.8954 22.6716 36 23.5 36ZM9.49902 25C10.3277 25 10.9997 25.6714 11 26.499C11 27.3278 10.3278 28 9.49902 28C8.67041 27.9987 8 27.3267 8 26.499C8.00025 25.6706 8.67159 25.0002 9.49902 25ZM167.591 0.0117188C167.609 0.0146759 167.628 0.0214289 167.644 0.0273438C167.693 0.0452852 167.737 0.0753137 167.774 0.108398C167.79 0.123235 167.802 0.138484 167.814 0.15332C167.839 0.186129 167.861 0.218934 167.873 0.257812L168.889 3.16113C169.251 4.19779 170.107 5.00641 171.185 5.33594L173.681 6.09668C173.873 6.15362 174 6.32488 174 6.5166C174 6.69931 173.885 6.86466 173.709 6.93066L170.98 7.94238C170.02 8.29891 169.267 9.04274 168.914 9.98047L167.876 12.7451C167.869 12.7659 167.853 12.7812 167.842 12.7998C167.833 12.815 167.824 12.8299 167.813 12.8438C167.797 12.8651 167.78 12.8843 167.76 12.9014C167.728 12.929 167.693 12.9529 167.653 12.9697C167.629 12.9788 167.604 12.9882 167.579 12.9912C167.554 12.9971 167.53 13 167.505 13L167.424 12.9912C167.399 12.9882 167.374 12.9786 167.35 12.9697C167.309 12.9526 167.273 12.9286 167.24 12.9004C167.22 12.8836 167.205 12.8643 167.188 12.8438C167.179 12.8319 167.172 12.8195 167.164 12.8066C167.151 12.7859 167.133 12.7683 167.124 12.7451L166.086 9.97949C165.736 9.04203 164.983 8.29891 164.023 7.94238L161.294 6.92969C161.118 6.86377 161 6.69916 161 6.5166C161 6.32484 161.13 6.15347 161.319 6.09668L163.815 5.33594C164.896 5.00641 165.749 4.19779 166.114 3.16113L167.13 0.257812C167.142 0.224993 167.157 0.194899 167.176 0.167969C167.188 0.150047 167.201 0.13232 167.22 0.117188C167.257 0.0783417 167.304 0.048248 167.359 0.0273438C167.375 0.0214852 167.393 0.0146831 167.411 0.0117188C167.439 0.00270319 167.47 2.4482e-05 167.501 0C167.532 0 167.563 0.00277643 167.591 0.0117188Z" fill="#202020"/>
<path d="M113.999 206.214C149.669 206.214 178.585 201.652 178.585 196.025C178.585 190.398 149.669 185.836 113.999 185.836C78.3296 185.836 49.4136 190.398 49.4136 196.025C49.4136 201.652 78.3296 206.214 113.999 206.214Z" fill="#E8E8E8"/>
<path d="M107.218 156.143C106.841 155.817 106.351 155.69 105.878 155.582C96.5867 153.398 87.0726 152.361 77.5721 152.496L77.6221 152.043C76.6362 154.141 75.5821 171.819 73.8056 173.141C72.438 174.161 70.7751 174.564 69.2076 175.135C65.8 176.385 62.5423 178.696 60.8975 182.202C59.2528 185.709 59.6481 190.511 62.4332 193.007C63.5737 194.026 64.9867 194.597 66.3952 195.073C68.9304 195.934 71.5293 196.554 74.1509 197.007C78.6853 197.787 83.2833 198.045 87.8677 198.249C92.761 198.471 97.7044 198.629 102.516 197.642C103.493 197.442 104.483 197.184 105.333 196.609C106.741 195.657 107.582 193.945 108.082 192.21C108.827 189.609 108.931 186.85 108.986 184.123C109.063 180.485 109.054 161.281 108.082 157.802C107.909 157.181 107.686 156.542 107.223 156.139L107.218 156.143Z" fill="#0EC189"/>
<path d="M166.837 180.735C164.993 177.328 161.612 175.208 158.136 174.152C156.537 173.667 154.856 173.359 153.434 172.422C151.58 171.203 149.522 153.611 148.418 151.573L148.495 152.021C139.004 152.424 129.562 154.001 120.412 156.706C119.948 156.842 119.467 156.996 119.108 157.344C118.667 157.77 118.481 158.427 118.345 159.052C117.572 162.582 118.663 181.754 118.944 185.383C119.158 188.101 119.417 190.851 120.307 193.402C120.903 195.105 121.838 196.763 123.302 197.638C124.178 198.163 125.183 198.363 126.168 198.507C131.03 199.223 135.955 198.784 140.83 198.285C145.396 197.819 149.972 197.302 154.456 196.265C157.046 195.667 159.609 194.897 162.089 193.896C163.466 193.338 164.847 192.695 165.924 191.612C168.559 188.962 168.682 184.146 166.842 180.739L166.837 180.735Z" fill="#0EC189"/>
<path d="M41.8588 128.604C35.9114 108.888 37.8424 86.3042 42.6767 67.8112C45.3801 57.4547 48.1925 46.5818 58.1518 39.75C67.2479 33.5072 76.7801 40.3073 81.2191 47.9092C85.0038 54.3922 86.4305 61.6544 90.4333 68.0332C90.9649 68.8849 91.8918 68.459 92.4143 67.9063C93.9545 66.2844 96.0536 65.1518 98.2072 64.2503C100.424 63.3216 102.755 62.5288 105.091 61.8673C105.572 61.7314 106.054 61.6 106.54 61.4777C107.303 61.2829 108.076 61.1017 108.848 60.9295C114.691 59.6248 121.961 60.7982 126.472 64.7033C130.28 67.9969 128.485 69.4557 133.978 68.382C144.764 66.2799 158.867 64.7441 162.393 77.0894C161.989 75.6759 173.438 76.591 174.274 76.6635C176.664 76.8674 179.095 77.3431 181.053 78.5618C186.124 81.724 188.173 87.4413 188.923 92.6195C190.499 103.452 189.958 115.267 187.955 126.045C186.083 136.111 181.98 146.06 174.352 153.911C166.523 161.966 155.482 167.307 143.86 170.216C120.034 176.178 89.4428 176.789 68.4337 163.919C54.3535 155.293 46.0979 142.68 41.8543 128.609L41.8588 128.604Z" fill="#202020"/>
<path d="M102.605 105.709C103.614 107.657 104.2 109.935 104.2 112.368C104.2 119.54 99.1656 125.352 92.9501 125.352C86.7346 125.352 81.7004 119.54 81.7004 112.368C81.7004 107.494 84.0266 103.253 87.4661 101.033L73.5948 96.7476C70.5461 99.6379 68.3062 103.439 67.3611 107.852C64.8577 119.499 72.2999 130.965 83.9812 133.462C95.6625 135.958 107.162 128.537 109.666 116.89C110.324 113.827 110.288 110.774 109.675 107.897L102.6 105.713L102.605 105.709Z" fill="white"/>
<path d="M81.7046 112.368C81.7046 119.539 86.7388 125.352 92.9543 125.352C99.1698 125.352 104.204 119.539 104.204 112.368C104.204 109.93 103.622 107.656 102.609 105.708L87.4748 101.033C84.0354 103.253 81.7091 107.498 81.7091 112.368H81.7046Z" fill="#0EC189"/>
<path d="M125.401 105.709C124.392 107.657 123.806 109.935 123.806 112.368C123.806 119.54 128.841 125.352 135.056 125.352C141.272 125.352 146.306 119.54 146.306 112.368C146.306 107.494 143.979 103.253 140.54 101.033L154.411 96.7476C157.46 99.6379 159.7 103.439 160.645 107.852C163.148 119.499 155.706 130.965 144.025 133.462C132.344 135.958 120.844 128.537 118.341 116.89C117.682 113.827 117.718 110.774 118.331 107.897L125.406 105.713L125.401 105.709Z" fill="white"/>
<path d="M146.299 112.368C146.299 119.539 141.265 125.352 135.049 125.352C128.834 125.352 123.8 119.539 123.8 112.368C123.8 109.93 124.381 107.656 125.395 105.708L140.529 101.033C143.968 103.253 146.295 107.498 146.295 112.368H146.299Z" fill="#0EC189"/>
<path d="M112.176 140.714C107.905 140.714 105.275 138.979 105.093 138.852C104.784 138.639 104.702 138.218 104.916 137.91C105.129 137.602 105.552 137.52 105.861 137.733C106.151 137.928 113.135 142.477 123.203 135.436C123.512 135.219 123.935 135.296 124.153 135.604C124.371 135.912 124.294 136.333 123.985 136.551C119.368 139.776 115.325 140.719 112.176 140.719V140.714Z" fill="white"/>
<path d="M102.698 92.274C102.666 92.274 102.634 92.274 102.602 92.2695L80.5389 89.1979C80.1663 89.148 79.9074 88.8037 79.9573 88.4322C80.0073 88.0607 80.3526 87.8025 80.7252 87.8523L102.788 90.9239C103.161 90.9738 103.42 91.3181 103.37 91.6896C103.325 92.0294 103.029 92.274 102.698 92.274Z" fill="white"/>
<path d="M124.929 92.2756C124.592 92.2756 124.302 92.031 124.256 91.6866C124.206 91.3152 124.465 90.9708 124.838 90.921L147.246 87.8494C147.614 87.795 147.964 88.0578 148.014 88.4293C148.064 88.8008 147.805 89.1451 147.433 89.1949L125.024 92.2665C124.992 92.2665 124.96 92.2711 124.929 92.2711V92.2756Z" fill="white"/>
</svg>
