<svg width="23" height="22" viewBox="0 0 23 22" fill="none" xmlns="http://www.w3.org/2000/svg">
<g clip-path="url(#clip0_3635_20996)">
<path d="M11.4023 1.375C13.2879 1.37503 15.0324 1.74132 16.6348 2.47461C18.2371 3.20792 19.5034 4.20584 20.4346 5.4668C21.3657 6.72774 21.832 8.10291 21.832 9.59277C21.832 11.0826 21.3657 12.4598 20.4346 13.7246C19.5034 14.9895 18.2382 15.9894 16.6396 16.7227C15.0413 17.4558 13.2955 17.8222 11.4023 17.8223C10.8049 17.8223 10.1879 17.7796 9.55176 17.6943C6.78917 19.611 5.31814 20.5812 5.13965 20.6045C5.05443 20.6355 4.97301 20.6315 4.89551 20.5928C4.86452 20.5695 4.84071 20.5387 4.8252 20.5C4.80968 20.4612 4.80176 20.4256 4.80176 20.3945V20.3486C4.84833 20.046 5.20176 18.7847 5.86133 16.5654C4.36365 15.8205 3.1747 14.8325 2.29395 13.6025C1.41324 12.3726 0.972656 11.0361 0.972656 9.59277C0.972674 8.103 1.43813 6.72768 2.36914 5.4668C3.30034 4.20578 4.56746 3.20793 6.16992 2.47461C7.77232 1.74133 9.51671 1.375 11.4023 1.375Z" fill="#202020"/>
</g>
<defs>
<clipPath id="clip0_3635_20996">
<rect width="22" height="22" fill="white" transform="translate(0.5)"/>
</clipPath>
</defs>
</svg>
