<svg xmlns="http://www.w3.org/2000/svg" viewBox="0 0 256 256">
  <path d="M175.16,59.46l-14.74,35.68-15.31-35.68h-15.59l23.27,52.85-4.04,9.7h-13.76v12.47h15.06c3.76,0,6.56-1.02,8.32-3.02,1.56-1.78,3.01-4.25,4.33-7.36l4.7-11.12,22.82-53.53h-15.06,0Z"/>
  <path d="M164.46,156.26c-3.74-2.32-8.26-3.48-13.43-3.48-4.11,0-7.77.82-10.86,2.45-1.78.94-3.34,2.11-4.66,3.51v-25.47h-14.77v60.16h-5.9v14.87h15.28v-8.13h1.14c1.81,2.84,4.25,5.07,7.25,6.63,3.23,1.68,7.13,2.53,11.58,2.53,5.45,0,10.17-1.19,14.02-3.52,3.87-2.35,6.86-5.69,8.89-9.95,2-4.19,3.02-9.17,3.02-14.8s-.98-10.61-2.92-14.82c-1.98-4.29-4.88-7.64-8.64-9.96h0ZM161.24,181.05c0,4.78-1.15,8.55-3.43,11.21-2.24,2.62-5.44,3.9-9.79,3.9-3.89,0-6.89-1.06-9.17-3.24-2.26-2.16-3.36-5.04-3.36-8.79v-6.16c0-3.75,1.1-6.62,3.36-8.79,2.28-2.18,5.28-3.24,9.17-3.24,4.34,0,7.55,1.28,9.79,3.9,2.27,2.66,3.43,6.43,3.43,11.21h0Z"/>
  <path d="M197.03,153.79h-14.77v54.49h14.77v-54.49Z"/>
  <path fill="#0ec189" d="M188.26,148.54c1.8,0,3.5-.7,4.79-1.98l15.99-18.91-8.56-8.66-12.84,15.72-9.7-7.07-7.48,9.16,13.46,10.17c1.22,1,2.76,1.56,4.33,1.56Z"/>
  <path d="M228.42,196.88v-29.97h12.65v-12.22h-12.74v-15.4h-14.6v15.4h-9.32v12.22h9.23v31.03c0,3.7,1.05,6.53,3.12,8.43,2.03,1.87,4.85,2.81,8.37,2.81h17.22v-12.3h-13.94Z"/>
  <path d="M131.15,95.42h-14.34l-.33.98c-.73,2.14-1.97,3.71-3.72,4.77-1.71,1.02-4.06,1.59-7.14,1.59-4.09,0-7.23-1.11-9.57-3.21-1.98-1.88-3.26-4.28-3.87-7.61h40.68v-6.46c0-5.62-1.1-10.55-3.36-14.74h0s0,0,0,0h0s0,0,0,0c-2.26-4.24-5.47-7.49-9.62-9.71h0s0,0,0,0,0,0,0,0h0c-4.15-2.28-9.07-3.39-14.69-3.39s-10.84,1.18-15.22,3.58h0s0,0,0,0c0,0,0,0,0,0h0c-4.38,2.35-7.77,5.74-10.15,10.16h0s0,0,0,0,0,0,0,0h0c-2.38,4.37-3.54,9.54-3.54,15.46s1.16,11.15,3.54,15.63v.02c2.45,4.42,5.89,7.87,10.33,10.33h.01c4.45,2.41,9.66,3.59,15.58,3.59,7.02,0,12.95-1.64,17.68-5.02h0c4.8-3.45,7.85-8.21,9.17-14.21l.38-1.76h-1.8ZM113.56,73.8c1.61,1.34,2.6,3.16,3.24,5.5h-23.95c.84-2.27,1.99-4.09,3.75-5.48,2.18-1.73,5-2.64,8.59-2.64,3.66,0,6.39.92,8.37,2.61l.94-1.1-.94,1.1h.02Z"/>
  <path d="M13.64,111.91V46.68h15.09v24.8h30.03v-24.8h15.09v65.23h-15.09v-27.22h-30.03v27.22h-15.09Z"/>
</svg>