<svg width="368" height="443" viewBox="0 0 368 443" fill="none" xmlns="http://www.w3.org/2000/svg">
<path d="M43.715 50.6159C43.8213 51.0818 43.6333 51.5667 43.235 51.8346L37.071 55.9579C34.902 57.4093 33.4717 59.7289 33.1435 62.3194L32.1847 69.9569C32.1787 70.0139 32.1468 70.0605 32.1311 70.114C32.1181 70.158 32.1058 70.2014 32.087 70.2432C32.0582 70.3072 32.0281 70.3653 31.9866 70.4207C31.9236 70.5093 31.8508 70.5904 31.7633 70.6554C31.7071 70.6925 31.6512 70.7291 31.5914 70.7507C31.5334 70.7798 31.4741 70.8017 31.4126 70.8158L31.2082 70.8381C31.145 70.8446 31.0786 70.8355 31.012 70.8268C30.9009 70.8062 30.7981 70.7635 30.7012 70.7096C30.6422 70.6781 30.5914 70.6398 30.539 70.5965C30.5088 70.5712 30.4829 70.5431 30.456 70.5144C30.4119 70.4688 30.3574 70.4357 30.3216 70.3817L26.1442 63.9163C24.7323 61.723 22.4373 60.2535 19.8533 59.8868L12.5108 58.846C12.0358 58.7778 11.6484 58.4237 11.5421 57.9578C11.4305 57.4689 11.6532 56.9597 12.0876 56.7082L17.8233 53.3579C20.3069 51.9071 21.9439 49.3632 22.2453 46.5135L23.07 38.537C23.0816 38.446 23.1025 38.3609 23.1327 38.2816C23.153 38.2288 23.1733 38.1761 23.2104 38.127C23.2796 38.007 23.377 37.9039 23.503 37.8191C23.5379 37.7953 23.5802 37.7693 23.6244 37.7512C23.6882 37.7124 23.7631 37.6873 23.8398 37.6698C23.9164 37.6523 23.9948 37.6424 24.0691 37.6497C24.1168 37.6468 24.1662 37.6519 24.208 37.6582C24.341 37.676 24.4658 37.7279 24.5773 37.7912C24.6243 37.8206 24.6638 37.8518 24.7032 37.883C24.7839 37.9529 24.8565 38.0246 24.9099 38.1171L29.1135 44.946C30.6138 47.3846 33.1999 48.9647 36.0595 49.1961L42.6808 49.7264C43.1898 49.763 43.6034 50.1269 43.715 50.6159Z" fill="#202020"/>
<path d="M18.4693 86.2275C18.5298 86.4927 18.4229 86.7687 18.1962 86.9212L14.6879 89.2679C13.4535 90.094 12.6394 91.4142 12.4526 92.8885L11.9069 97.2354C11.9035 97.2678 11.8853 97.2944 11.8764 97.3248C11.869 97.3498 11.862 97.3746 11.8513 97.3984C11.8349 97.4348 11.8178 97.4678 11.7942 97.4994C11.7583 97.5498 11.7169 97.5959 11.6671 97.6329C11.6351 97.654 11.6033 97.6749 11.5692 97.6872C11.5362 97.7037 11.5025 97.7162 11.4675 97.7242L11.3511 97.7369C11.3152 97.7406 11.2774 97.7354 11.2395 97.7305C11.1763 97.7188 11.1178 97.6945 11.0626 97.6638C11.029 97.6458 11.0001 97.6241 10.9702 97.5994C10.9531 97.585 10.9383 97.569 10.923 97.5527C10.8979 97.5267 10.8669 97.5079 10.8465 97.4771L8.46901 93.7974C7.6654 92.5491 6.35919 91.7127 4.88857 91.504L0.709594 90.9116C0.439234 90.8728 0.218748 90.6713 0.158237 90.4062C0.0947273 90.1279 0.2215 89.8381 0.468744 89.695L3.73315 87.7882C5.14674 86.9624 6.07842 85.5146 6.24993 83.8927L6.71933 79.3529C6.72592 79.3011 6.73781 79.2527 6.755 79.2075C6.76655 79.1775 6.77811 79.1475 6.79922 79.1195C6.8386 79.0512 6.89406 78.9926 6.96575 78.9443C6.9856 78.9307 7.00971 78.9159 7.03486 78.9057C7.07117 78.8835 7.11381 78.8693 7.15743 78.8593C7.20105 78.8494 7.24566 78.8437 7.28796 78.8479C7.31507 78.8462 7.34322 78.8491 7.36699 78.8527C7.44268 78.8628 7.51372 78.8924 7.57717 78.9284C7.60394 78.9452 7.6264 78.9629 7.64886 78.9807C7.69475 79.0204 7.7361 79.0613 7.76652 79.1139L10.159 83.0006C11.0128 84.3885 12.4847 85.2878 14.1123 85.4195L17.8807 85.7213C18.1704 85.7421 18.4058 85.9492 18.4693 86.2275Z" fill="#202020"/>
<path d="M300.635 477.853C393.83 460.643 467.179 434.774 464.464 420.074C461.75 405.374 383.999 407.408 290.804 424.618C197.608 441.829 124.259 467.697 126.974 482.398C129.689 497.098 207.439 495.063 300.635 477.853Z" fill="#E8E8E8"/>
<path d="M258.762 350.32C257.619 349.65 256.276 349.555 254.989 349.499C229.659 348.277 204.301 350.157 179.545 355.096L179.457 353.889C177.893 359.844 183.667 406.534 179.663 410.847C176.582 414.169 172.432 416.025 168.612 418.272C160.312 423.183 152.915 430.791 150.309 440.745C147.703 450.699 151.053 463.053 159.534 468.231C163.005 470.343 166.973 471.153 170.882 471.716C177.921 472.741 185.011 473.109 192.079 473.028C204.302 472.875 216.44 471.332 228.516 469.652C241.408 467.871 254.4 465.9 266.495 460.999C268.951 460.007 271.415 458.854 273.357 456.941C276.578 453.776 277.948 448.897 278.417 444.123C279.109 436.97 278.051 429.712 276.878 422.561C275.325 413.02 266.036 362.855 261.817 354.235C261.067 352.697 260.177 351.135 258.771 350.306L258.762 350.32Z" fill="#0EC189"/>
<path d="M426.393 385.797C419.93 377.787 410.075 373.879 400.485 372.799C396.072 372.304 391.531 372.31 387.363 370.546C381.932 368.257 368.068 323.294 364.2 318.501L364.618 319.636C340.014 325.268 316.107 333.942 293.504 345.423C292.358 346.002 291.174 346.636 290.405 347.721C289.459 349.046 289.289 350.852 289.235 352.551C288.919 362.143 301.017 411.704 303.504 421.048C305.373 428.046 307.377 435.105 310.934 441.338C313.311 445.501 316.556 449.381 320.8 450.959C323.345 451.909 326.065 451.946 328.71 451.849C341.758 451.373 354.414 447.849 366.911 444.194C378.616 440.772 390.321 437.216 401.537 432.342C408.015 429.53 414.339 426.281 420.337 422.469C423.665 420.349 426.964 418.002 429.255 414.654C434.861 406.459 432.858 393.819 426.407 385.807L426.393 385.797Z" fill="#0EC189"/>
<path d="M74.7093 309.912C49.6586 261.275 43.8087 201.345 47.5178 150.701C49.5848 122.342 51.6875 92.5802 74.4128 69.9276C95.1666 49.23 123.352 62.3953 138.618 80.113C151.634 95.223 158.865 113.506 172.4 128.239C174.2 130.208 176.416 128.648 177.515 126.952C180.757 121.972 185.695 118 190.886 114.606C196.231 111.11 201.939 107.914 207.721 105.059C208.914 104.472 210.109 103.896 211.32 103.342C213.221 102.465 215.151 101.619 217.086 100.797C231.723 94.5689 251.282 94.1267 264.954 102.152C276.491 108.919 272.506 113.596 286.34 108.14C313.507 97.4447 349.613 86.6281 364.781 117.178C363.043 113.68 393.399 110.547 395.618 110.333C401.961 109.712 408.541 109.782 414.245 112.021C429.019 117.835 437.131 131.783 441.588 144.949C450.932 172.486 455.22 203.613 455.184 232.735C455.15 259.936 449.23 287.906 433.086 312.097C416.518 336.917 390.249 356.197 361.286 369.403C301.911 396.474 222.279 412.832 161.179 389.345C120.23 373.604 92.5755 344.638 74.6996 309.926L74.7093 309.912Z" fill="#202020"/>
<path d="M222.378 220.79C225.953 225.392 228.584 231.063 229.757 237.418C233.217 256.153 222.868 273.767 206.629 276.765C190.389 279.764 174.432 267.009 170.972 248.274C168.621 235.539 172.653 223.339 180.568 215.88L142.259 211.377C135.688 220.399 131.669 231.409 131.329 243.393C130.407 275.029 155.383 301.393 187.108 302.278C218.832 303.163 245.297 278.228 246.219 246.592C246.463 238.274 244.895 230.315 241.905 223.095L222.368 220.804L222.378 220.79Z" fill="white"/>
<path d="M170.983 248.27C174.443 267.005 190.4 279.761 206.64 276.762C222.879 273.763 233.228 256.149 229.768 237.414C228.592 231.047 225.976 225.386 222.389 220.786L180.591 215.874C172.676 223.333 168.646 235.545 170.995 248.268L170.983 248.27Z" fill="#0EC189"/>
<path d="M281.939 209.791C280.243 215.366 279.811 221.602 280.985 227.958C284.444 246.693 300.402 259.448 316.641 256.45C332.88 253.451 343.229 235.837 339.77 217.102C337.418 204.368 329.294 194.412 319.237 190.272L353.411 172.384C362.771 178.464 370.457 187.312 375.055 198.384C387.215 227.604 373.302 261.15 343.986 273.307C314.67 285.464 281.045 271.627 268.885 242.406C265.686 234.724 264.308 226.729 264.523 218.918L281.953 209.8L281.939 209.791Z" fill="white"/>
<path d="M339.752 217.104C343.211 235.839 332.863 253.453 316.623 256.451C300.384 259.45 284.427 246.695 280.967 227.96C279.791 221.592 280.213 215.371 281.921 209.793L319.207 190.277C329.265 194.416 337.39 204.383 339.74 217.106L339.752 217.104Z" fill="#0EC189"/>
<path d="M264.273 307.62C253.114 309.681 245.403 306.417 244.867 306.173C243.958 305.766 243.541 304.705 243.95 303.797C244.359 302.889 245.424 302.472 246.334 302.88C247.188 303.248 267.627 311.761 290.537 288.512C291.239 287.794 292.381 287.792 293.099 288.491C293.817 289.191 293.819 290.329 293.116 291.046C282.612 301.7 272.501 306.113 264.275 307.632L264.273 307.62Z" fill="white"/>
<path d="M216.138 185.649C216.054 185.664 215.971 185.679 215.886 185.683L156.759 188.304C155.762 188.354 154.919 187.579 154.87 186.584C154.821 185.59 155.599 184.749 156.597 184.699L215.724 182.078C216.721 182.028 217.564 182.803 217.612 183.798C217.658 184.707 217.004 185.489 216.138 185.649Z" fill="white"/>
<path d="M274.223 174.927C273.345 175.089 272.467 174.59 272.182 173.712C271.872 172.766 272.383 171.742 273.332 171.432L330.398 152.596C331.333 152.276 332.374 152.794 332.684 153.74C332.994 154.686 332.483 155.711 331.534 156.021L274.468 174.857C274.385 174.872 274.304 174.899 274.221 174.915L274.223 174.927Z" fill="white"/>
</svg>
