<svg width="199" height="72" viewBox="0 0 199 72" fill="none" xmlns="http://www.w3.org/2000/svg">
<path d="M99.7695 57.9189L96.7119 65.1602C95.8586 67.1833 94.9115 68.7936 93.8975 69.9502C92.7518 71.2531 90.9314 71.915 88.4854 71.915H79.5664V63.793H87.6377L90.2656 57.4736L75.127 23.0596H85.2676L95.2305 46.2969L104.822 23.0596L104.819 23.0566H114.615L99.7695 57.9189ZM59.7832 23.9512C63.1915 23.9512 66.1386 24.6247 68.6113 25.9873C71.0825 27.3121 72.9927 29.2442 74.3389 31.7744L74.4023 31.8916C75.7083 34.3633 76.3545 37.2813 76.3545 40.6338V44.0684H51.0527C51.3803 46.6065 52.2855 48.3671 53.7549 49.752C55.3257 51.1615 57.4152 51.8808 60.0566 51.8809C62.0288 51.8809 63.5907 51.5187 64.7656 50.8213C65.9732 50.0893 66.821 49.0099 67.3096 47.5645L67.3867 47.3369H76.2705L76.1816 47.7432C75.397 51.3292 73.5795 54.1554 70.7295 56.2012H70.7285C67.9164 58.2087 64.3698 59.2001 60.1123 59.2002C56.5207 59.2002 53.3915 58.4898 50.7373 57.0547L50.7354 57.0537L50.7344 57.0527C48.0833 55.5816 46.0261 53.5224 44.5693 50.8809L44.5684 50.8789L44.5664 50.876C43.1468 48.1962 42.4434 45.0553 42.4434 41.4648C42.4434 37.8747 43.1467 34.7691 44.5684 32.1611C45.9888 29.5185 48.0108 27.4948 50.6289 26.0967C53.2455 24.6625 56.3009 23.9512 59.7832 23.9512ZM10.3145 28.3936H29.8389V9.56055H39.6533V59.0879H29.8389V38.4209H10.3145V59.0879H0.5V9.56055H10.3145V28.3936ZM128.066 26.1445C128.926 25.2341 129.94 24.4703 131.101 23.8613C133.115 22.8044 135.491 22.2686 138.169 22.2686C141.537 22.2686 144.478 23.0293 146.913 24.5371V24.54C149.357 26.0538 151.249 28.236 152.535 31.0293C153.798 33.7728 154.438 37.014 154.438 40.6797C154.438 44.3454 153.777 47.5866 152.474 50.3154C151.149 53.0883 149.203 55.2675 146.686 56.7959C144.177 58.3155 141.108 59.0879 137.559 59.0879C134.661 59.0879 132.126 58.5316 130.021 57.4395C128.066 56.4235 126.482 54.9743 125.301 53.124H124.561V58.418H114.615V48.7344H118.454V9.56055H128.066V26.1445ZM64.5264 58.4531C63.1571 58.7274 61.6855 58.8652 60.1113 58.8652C59.9512 58.8652 59.792 58.8622 59.6338 58.8594C59.7375 58.8613 59.8418 58.8646 59.9463 58.8652L60.1123 58.8662C61.6862 58.8662 63.1574 58.7274 64.5264 58.4531ZM189.388 23.3809H197.665V31.3359H189.443V50.8525H198.5V58.8633H187.312C185.021 58.8633 183.19 58.2484 181.871 57.0332C180.526 55.7975 179.846 53.9497 179.846 51.543V31.3359H173.848V23.3809H179.901V13.3516H189.388V23.3809ZM58.917 58.8359C59.0762 58.8433 59.2363 58.8501 59.3975 58.8545C59.2363 58.8501 59.0762 58.8433 58.917 58.8359ZM58.3057 58.7998C58.4603 58.811 58.6158 58.8209 58.7725 58.8291C58.6159 58.8209 58.4603 58.811 58.3057 58.7998ZM57.6494 58.7432C57.8076 58.7592 57.9667 58.7743 58.127 58.7871C57.9667 58.7743 57.8075 58.7591 57.6494 58.7432ZM168.938 58.7539H159.346V23.3926H168.938V58.7539ZM57.1455 58.6855C57.2679 58.7008 57.3909 58.7162 57.5146 58.7295C57.3909 58.7162 57.2679 58.7008 57.1455 58.6855ZM56.4805 58.5928C56.6061 58.6125 56.7323 58.6319 56.8594 58.6494C56.7323 58.6319 56.6061 58.6125 56.4805 58.5928ZM55.7969 58.4736C55.9652 58.506 56.1346 58.538 56.3057 58.5664C56.1346 58.5381 55.9652 58.506 55.7969 58.4736ZM55.2432 58.3594C55.3989 58.3941 55.5557 58.4278 55.7139 58.459C55.5557 58.4278 55.3989 58.3941 55.2432 58.3594ZM65.8535 58.1348C65.4419 58.2503 65.02 58.3514 64.5879 58.4395C65.02 58.3514 65.4419 58.2503 65.8535 58.1348ZM54.7021 58.2295C54.8442 58.2657 54.9868 58.3019 55.1309 58.335C54.9868 58.3019 54.8442 58.2656 54.7021 58.2295ZM65.9854 58.0957C66.1536 58.047 66.3206 57.9977 66.4854 57.9443C66.3206 57.9977 66.1536 58.047 65.9854 58.0957ZM66.7041 57.8701C66.8416 57.8235 66.9782 57.7765 67.1133 57.7266C66.9783 57.7765 66.8416 57.8235 66.7041 57.8701ZM53.0371 57.7178C53.1741 57.7677 53.3119 57.8167 53.4512 57.8633C53.3119 57.8167 53.1741 57.7676 53.0371 57.7178ZM52.5117 57.5166C52.6477 57.5714 52.7846 57.6253 52.9229 57.6768C52.7846 57.6253 52.6477 57.5714 52.5117 57.5166ZM67.3027 57.6533C67.4373 57.6016 67.571 57.5492 67.7031 57.4941C67.571 57.5492 67.4373 57.6016 67.3027 57.6533ZM52.0361 57.3154C52.154 57.3674 52.272 57.4194 52.3916 57.4688C52.272 57.4195 52.154 57.3673 52.0361 57.3154ZM67.959 57.3828C68.0693 57.3344 68.1796 57.2871 68.2881 57.2363C68.1796 57.2871 68.0693 57.3344 67.959 57.3828ZM51.0186 56.8232C51.2981 56.9712 51.5826 57.1122 51.873 57.2441C51.5825 57.1123 51.2982 56.9712 51.0186 56.8232ZM68.5146 57.126C68.6364 57.0665 68.7575 57.0069 68.877 56.9443C68.7575 57.0069 68.6363 57.0665 68.5146 57.126ZM69.043 56.8535C69.1716 56.784 69.2999 56.7147 69.4258 56.6416C69.2999 56.7147 69.1716 56.784 69.043 56.8535ZM48.8213 55.3877C49.414 55.8506 50.0467 56.2739 50.7197 56.6582C50.0467 56.274 49.4141 55.8505 48.8213 55.3877ZM69.624 56.5225C69.7372 56.4542 69.85 56.3857 69.9609 56.3145C69.85 56.3857 69.7372 56.4542 69.624 56.5225ZM75.8555 47.6719C75.0874 51.1813 73.3123 53.9338 70.5332 55.9287C70.4116 56.0155 70.2866 56.0977 70.1621 56.1807C70.243 56.1268 70.3256 56.075 70.4053 56.0195L70.5342 55.9287C73.3134 53.9337 75.0875 51.1816 75.8555 47.6719ZM54.5098 50.752C54.5722 50.7926 54.6366 50.8302 54.7002 50.8691C54.6315 50.8271 54.5623 50.7862 54.4951 50.7422L54.5098 50.752ZM51.6699 47.4756C52.1386 48.447 52.7568 49.2727 53.5283 49.999C53.8179 50.2591 54.1248 50.4948 54.4473 50.709C54.1252 50.4949 53.8186 50.2588 53.5293 49.999C53.0266 49.5257 52.5881 49.0107 52.2139 48.4404C52.1391 48.3264 52.0667 48.2103 51.9971 48.0918C51.8803 47.8933 51.7722 47.6876 51.6699 47.4756ZM136.22 30.8418C133.688 30.8418 131.735 31.533 130.25 32.9531C128.78 34.3615 128.064 36.232 128.063 38.6738V42.6855C128.063 45.1275 128.78 46.9989 130.25 48.4072C131.735 49.8271 133.688 50.5176 136.22 50.5176C139.049 50.5175 141.134 49.6865 142.593 47.9795C144.072 46.2461 144.823 43.7892 144.823 40.6768L144.82 40.6826C144.82 37.5701 144.069 35.1133 142.59 33.3799C141.131 31.6729 139.047 30.8419 136.22 30.8418ZM43.7676 48.1377C43.7768 48.1658 43.7865 48.1937 43.7959 48.2217C43.7865 48.1937 43.7768 48.1658 43.7676 48.1377ZM43.6006 47.6025C43.613 47.6448 43.6269 47.6865 43.6396 47.7285C43.6269 47.6865 43.613 47.6448 43.6006 47.6025ZM72.5918 29.7158C73.1329 30.3932 73.6178 31.1314 74.0439 31.9326C75.3604 34.3709 76.0185 37.271 76.0186 40.6328V43.7334H76.0195V40.6338C76.0195 37.272 75.3613 34.3719 74.0449 31.9336C73.6186 31.132 73.1332 30.3934 72.5918 29.7158ZM42.8584 43.498C42.8633 43.5584 42.8687 43.6186 42.874 43.6787C42.8687 43.6186 42.8633 43.5584 42.8584 43.498ZM42.7891 42.2314C42.7903 42.2738 42.7925 42.3161 42.7939 42.3584C42.7925 42.3161 42.7903 42.2738 42.7891 42.2314ZM42.7783 41.6309C42.7786 41.6833 42.7796 41.7358 42.7803 41.7881C42.7793 41.7079 42.7786 41.6275 42.7783 41.5469V41.6309ZM51.7715 35.1914C51.3689 35.9169 51.0584 36.7415 50.8408 37.6992H50.8418C51.0594 36.7418 51.369 35.9168 51.7715 35.1914ZM59.7832 31.2148C57.4652 31.2148 55.5861 31.8088 54.1211 32.9717C52.7394 34.0685 51.7903 35.4107 51.2686 37.3652H67.7822C67.4248 35.3637 66.6058 34.0252 65.3291 32.9668L65.3271 32.9648L65.3252 32.9639C63.9753 31.81 62.1402 31.2149 59.7832 31.2148ZM64.8008 32.1611C64.9454 32.254 65.0862 32.3511 65.2227 32.4541C65.0863 32.3511 64.9454 32.254 64.8008 32.1611ZM59.7822 30.8799C57.9993 30.8799 56.4532 31.2232 55.1436 31.9092H55.1445C55.2536 31.8521 55.3643 31.7975 55.4766 31.7451C56.7132 31.1688 58.149 30.8809 59.7832 30.8809L59.7822 30.8799ZM69.1641 26.6934C69.7339 27.043 70.2699 27.4285 70.7725 27.8506C70.2698 27.4286 69.7339 27.043 69.1641 26.6934ZM67.2061 25.6748C67.1546 25.6526 67.1036 25.6291 67.0518 25.6074C67.1036 25.6291 67.1546 25.6526 67.2061 25.6748ZM66.1924 25.2803C66.1516 25.2661 66.1113 25.2502 66.0703 25.2363C66.1113 25.2502 66.1516 25.2661 66.1924 25.2803ZM65.668 25.1074C65.6366 25.0977 65.6057 25.0867 65.5742 25.0771C65.6057 25.0867 65.6366 25.0977 65.668 25.1074ZM64.6865 24.8369C64.627 24.8224 64.5678 24.8059 64.5078 24.792C64.5678 24.8059 64.627 24.8224 64.6865 24.8369ZM64.0254 24.6885C64.0163 24.6866 64.0072 24.6845 63.998 24.6826C64.0072 24.6845 64.0163 24.6866 64.0254 24.6885ZM63.5225 24.5938C63.4931 24.5886 63.464 24.5821 63.4346 24.5771C63.464 24.5821 63.4931 24.5886 63.5225 24.5938ZM63.083 24.5225C63.0045 24.5106 62.9258 24.4982 62.8467 24.4873C62.9258 24.4982 63.0045 24.5106 63.083 24.5225ZM62.4746 24.4414C62.4171 24.4346 62.3596 24.4263 62.3018 24.4199C62.3596 24.4263 62.4171 24.4346 62.4746 24.4414ZM61.8311 24.374C61.7956 24.3709 61.7602 24.3672 61.7246 24.3643C61.7602 24.3672 61.7956 24.3709 61.8311 24.374ZM61.2881 24.333C61.2303 24.3294 61.1724 24.3255 61.1143 24.3223C61.1724 24.3255 61.2303 24.3294 61.2881 24.333ZM60.6719 24.3027C60.6202 24.3009 60.5685 24.2984 60.5166 24.2969C60.5685 24.2984 60.6202 24.3009 60.6719 24.3027ZM60.0908 24.2881C60.0408 24.2875 59.9907 24.2864 59.9404 24.2861H59.8604C59.9374 24.2864 60.0142 24.2871 60.0908 24.2881ZM53.5957 57.9102C53.735 57.9554 53.8751 57.9999 54.0166 58.042C53.8751 58 53.735 57.9554 53.5957 57.9102ZM51.9375 34.9092C51.881 35.0018 51.8248 35.0954 51.7715 35.1914C51.8248 35.0954 51.881 35.0018 51.9375 34.9092Z" fill="#202020"/>
<path d="M163.273 19.1864C164.45 19.1864 165.563 18.7309 166.405 17.9017L176.859 5.62074L171.263 0L162.874 10.2108L156.536 5.62074L151.648 11.5714L160.446 18.1762C161.245 18.8273 162.248 19.1864 163.273 19.1864Z" fill="#0EC189"/>
</svg>
