<svg width="11" height="20" viewBox="0 0 11 20" fill="none" xmlns="http://www.w3.org/2000/svg">
<path d="M2.725 10.0065L10.075 17.3565C10.325 17.6065 10.4458 17.8981 10.4375 18.2315C10.4292 18.5648 10.3 18.8565 10.05 19.1065C9.8 19.3565 9.50833 19.4815 9.175 19.4815C8.84167 19.4815 8.55 19.3565 8.3 19.1065L0.6 11.4315C0.4 11.2315 0.25 11.0065 0.15 10.7565C0.05 10.5065 0 10.2565 0 10.0065C0 9.75646 0.05 9.50646 0.15 9.25646C0.25 9.00646 0.4 8.78146 0.6 8.58146L8.3 0.881458C8.55 0.631458 8.84583 0.510625 9.1875 0.518958C9.52917 0.527291 9.825 0.656458 10.075 0.906458C10.325 1.15646 10.45 1.44812 10.45 1.78146C10.45 2.11479 10.325 2.40646 10.075 2.65646L2.725 10.0065Z" fill="#202020"/>
</svg>
