<svg width="134" height="49" viewBox="0 0 134 49" fill="none" xmlns="http://www.w3.org/2000/svg">
<path d="M67.1807 39.1971L65.1123 44.0975C64.5348 45.4669 63.8933 46.557 63.207 47.3397C62.4318 48.2213 61.2 48.6688 59.5449 48.6688H53.5078V43.1718H58.9707L60.749 38.8954L50.5039 15.6053H57.3672L64.1094 31.3319L70.6006 15.6053L70.5986 15.6034H77.2285L67.1807 39.1971ZM40.1191 16.2089C42.4259 16.2089 44.4212 16.6646 46.0947 17.5868C47.7671 18.4834 49.0597 19.7914 49.9707 21.5038L50.0137 21.5829C50.8974 23.2556 51.3349 25.2302 51.335 27.4989V29.8231H34.2109C34.4326 31.5408 35.0457 32.7326 36.04 33.6698C37.1031 34.6237 38.5172 35.1111 40.3047 35.1112C41.6394 35.1112 42.697 34.8654 43.4922 34.3934C44.3092 33.898 44.8833 33.1674 45.2139 32.1893L45.2656 32.036H51.2783L51.2178 32.3104C50.6867 34.7373 49.4561 36.6495 47.5273 38.0341V38.035C45.6242 39.3937 43.2232 40.0643 40.3418 40.0643C37.9114 40.0643 35.7942 39.5833 33.998 38.6122L33.9971 38.6112H33.9961C32.2019 37.6156 30.8091 36.2221 29.8232 34.4344L29.8223 34.4325V34.4305C28.8615 32.6169 28.3848 30.4914 28.3848 28.0614C28.3848 25.6318 28.8612 23.5304 29.8232 21.7655C30.7845 19.977 32.1529 18.6072 33.9248 17.661C35.6955 16.6905 37.7626 16.2089 40.1191 16.2089ZM6.64258 19.2157H19.8555V6.47058H26.498V39.9891H19.8555V26.0028H6.64258V39.9891H0V6.47058H6.64258V19.2157ZM86.3311 17.6942C86.9127 17.078 87.5994 16.5605 88.3848 16.1483C89.7479 15.433 91.3567 15.0712 93.1689 15.0712C95.4482 15.0712 97.4388 15.5858 99.0869 16.6063V16.6083C100.741 17.6328 102.021 19.1094 102.892 20.9999C103.746 22.8566 104.18 25.0503 104.18 27.5311C104.18 30.0121 103.732 32.2058 102.85 34.0526C101.953 35.929 100.636 37.403 98.9326 38.4374C97.2351 39.4658 95.1577 39.9891 92.7559 39.9891C90.7953 39.9891 89.0797 39.613 87.6553 38.8739C86.3317 38.1863 85.2593 37.2053 84.46 35.953H83.959V39.536H77.2285V32.9823H79.8262V6.47058H86.3311V17.6942ZM127.833 15.8241H133.436V21.2089H127.871V34.4159H134V39.8378H126.429C124.878 39.8378 123.64 39.4217 122.747 38.5995C121.836 37.7632 121.376 36.5126 121.376 34.8837V21.2089H117.316V15.8241H121.413V9.03699H127.833V15.8241ZM40.2295 39.8378H40.2686C40.2193 39.8376 40.1701 39.8364 40.1211 39.8358C40.1572 39.8363 40.1933 39.8375 40.2295 39.8378ZM39.6562 39.8231C39.7182 39.8256 39.7804 39.8282 39.8428 39.83C39.7804 39.8282 39.7182 39.8256 39.6562 39.8231ZM41.1729 39.8163C41.2412 39.813 41.3093 39.8116 41.377 39.8075C41.3093 39.8116 41.2412 39.813 41.1729 39.8163ZM39.3271 39.8075C39.3424 39.8084 39.3577 39.8096 39.373 39.8104C39.3577 39.8096 39.3424 39.8084 39.3271 39.8075ZM38.9082 39.7772C38.9212 39.7783 38.9342 39.78 38.9473 39.7811C38.9342 39.78 38.9212 39.7783 38.9082 39.7772ZM41.7812 39.7762C41.8106 39.7737 41.8399 39.7721 41.8691 39.7694C41.8399 39.7721 41.8106 39.7737 41.7812 39.7762ZM113.994 39.7635H107.502V15.8319H113.994V39.7635ZM38.0137 39.6727C38.0585 39.6793 38.1033 39.687 38.1484 39.6932C38.1033 39.687 38.0585 39.6793 38.0137 39.6727ZM42.7549 39.66C42.7822 39.6558 42.8097 39.6527 42.8369 39.6483C42.8097 39.6527 42.7822 39.6558 42.7549 39.66ZM37.1602 39.5194C37.2253 39.5333 37.2907 39.5474 37.3564 39.5604C37.2907 39.5474 37.2253 39.5333 37.1602 39.5194ZM43.627 39.494C43.6723 39.4838 43.7177 39.4744 43.7627 39.4637C43.7177 39.4744 43.6723 39.4838 43.627 39.494ZM36.8721 39.455C36.8955 39.4605 36.9188 39.4671 36.9424 39.4725C36.9188 39.4671 36.8955 39.4605 36.8721 39.455ZM44.1689 39.3602C44.1755 39.3584 44.1819 39.3562 44.1885 39.3544C44.1819 39.3562 44.1755 39.3584 44.1689 39.3602ZM36.0205 39.2196C36.078 39.2378 36.1353 39.2569 36.1934 39.2743C36.1353 39.2569 36.078 39.2378 36.0205 39.2196ZM44.5742 39.2401C44.5898 39.2352 44.6055 39.2304 44.6211 39.2255C44.6055 39.2305 44.5898 39.2352 44.5742 39.2401ZM35.6836 39.1073C35.7336 39.1248 35.7835 39.1431 35.834 39.16C35.7835 39.1431 35.7336 39.1248 35.6836 39.1073ZM44.8926 39.1337C44.9524 39.1128 45.0121 39.092 45.0713 39.0702C45.0121 39.092 44.9524 39.1128 44.8926 39.1337ZM45.2363 39.0057C45.3169 38.9745 45.3973 38.944 45.4766 38.911C45.3973 38.944 45.3169 38.9745 45.2363 39.0057ZM34.7842 38.7489C34.8947 38.7988 35.0063 38.8469 35.1191 38.8934C35.0063 38.8469 34.8947 38.7988 34.7842 38.7489ZM45.7334 38.7997C45.7768 38.7802 45.8203 38.7611 45.8633 38.7411C45.8203 38.7611 45.7768 38.7802 45.7334 38.7997ZM46.1016 38.6249C46.1522 38.5996 46.2029 38.5748 46.2529 38.5487C46.2029 38.5748 46.1522 38.5996 46.1016 38.6249ZM46.5029 38.413C46.5431 38.3906 46.5833 38.3685 46.623 38.3456C46.5833 38.3685 46.5431 38.3906 46.5029 38.413ZM46.835 38.2186C46.8917 38.1839 46.9481 38.149 47.0039 38.1132C46.9481 38.149 46.8916 38.1839 46.835 38.2186ZM47.1631 38.0087C47.2114 37.9763 47.2609 37.9452 47.3086 37.912L47.3955 37.8505L47.1631 38.0087ZM31.2744 36.1307H31.2754H31.2744ZM29.7275 33.7225C29.8202 33.927 29.9172 34.1283 30.0215 34.3251C30.1421 34.5438 30.2694 34.7562 30.4023 34.9628C30.4689 35.0661 30.5368 35.1681 30.6064 35.2684H30.6074C30.3986 34.9675 30.2034 34.6532 30.0225 34.3251C29.9181 34.1282 29.8203 33.9271 29.7275 33.7225ZM41.7266 35.2323H41.7275H41.7266ZM37.2021 34.7079C37.0598 34.6405 36.9207 34.5693 36.7861 34.4911C36.9207 34.5693 37.0598 34.6405 37.2021 34.7079ZM36.3154 34.1835C36.428 34.2656 36.5442 34.3425 36.6631 34.4159C36.5442 34.3425 36.428 34.2656 36.3154 34.1835ZM44.8242 33.4637C44.6806 33.6656 44.5209 33.8518 44.3447 34.0223C44.2569 34.1073 44.1652 34.1883 44.0693 34.2655V34.2665C44.3578 34.0343 44.6089 33.7663 44.8242 33.4637ZM91.8496 20.8729C90.1363 20.8729 88.8146 21.3406 87.8096 22.3016C86.8144 23.2548 86.3291 24.5211 86.3291 26.1737V28.8885C86.3291 30.5411 86.8144 31.8075 87.8096 32.7606C88.8146 33.7216 90.1363 34.1893 91.8496 34.1893C93.7647 34.1893 95.1758 33.6268 96.1631 32.4716C97.1642 31.2985 97.6719 29.6356 97.6719 27.5292L97.6699 27.5331C97.6699 25.4266 97.1613 23.7638 96.1602 22.5907C95.1729 21.4357 93.7626 20.8729 91.8496 20.8729ZM35.5 33.4393C35.561 33.5081 35.624 33.5752 35.6885 33.6415C35.5594 33.5088 35.4374 33.3713 35.3223 33.2284L35.5 33.4393ZM29.1318 32.0878C29.2718 32.5833 29.4411 33.0595 29.6377 33.5175C29.4411 33.0595 29.2719 32.5833 29.1318 32.0878ZM45.4277 32.2626C45.3195 32.5828 45.1863 32.8788 45.0273 33.1503L45.1201 32.9843C45.2392 32.7593 45.3421 32.5188 45.4287 32.2626H45.4277ZM34.8506 32.5458C34.945 32.7064 35.046 32.861 35.1543 33.0096L34.9971 32.7821C34.9464 32.7049 34.8978 32.626 34.8506 32.5458ZM28.9688 31.4481C28.9854 31.5215 29.0037 31.5943 29.0215 31.6669C29.0037 31.5943 28.9854 31.5215 28.9688 31.4481ZM28.8857 31.0555C28.9005 31.1309 28.9167 31.2056 28.9326 31.2802C28.9167 31.2056 28.9005 31.1309 28.8857 31.0555ZM28.7539 30.2509C28.7609 30.3028 28.7688 30.3545 28.7764 30.4061C28.7688 30.3545 28.7609 30.3028 28.7539 30.2509ZM28.7051 29.8583C28.7101 29.9047 28.7162 29.9508 28.7217 29.9969C28.7162 29.9508 28.7101 29.9047 28.7051 29.8583ZM28.6631 29.3964C28.6683 29.4634 28.6746 29.5301 28.6807 29.5966C28.6746 29.5301 28.6683 29.4634 28.6631 29.3964ZM28.6348 28.9589C28.6388 29.0377 28.6443 29.1161 28.6494 29.1942C28.6443 29.1161 28.6388 29.0377 28.6348 28.9589ZM28.6182 28.5575C28.6203 28.635 28.6238 28.7121 28.627 28.7889C28.6238 28.7121 28.6203 28.635 28.6182 28.5575ZM28.6113 28.1737C28.6116 28.215 28.6137 28.2566 28.6143 28.2977C28.6132 28.2196 28.6113 28.1412 28.6113 28.0624V28.1737ZM28.6611 26.7469C28.6391 27.0314 28.6245 27.3211 28.6172 27.6161L28.6338 27.1776C28.6412 27.0327 28.6501 26.8892 28.6611 26.7469ZM28.8809 25.1053C28.8037 25.5 28.7433 25.9066 28.6992 26.3251L28.749 25.911C28.8042 25.5004 28.8756 25.1016 28.9639 24.7147L28.8809 25.1053ZM45.7988 25.5135H34.0684V25.5145H45.7998L45.7988 25.5135ZM45.417 24.0389C45.5744 24.4305 45.6932 24.8652 45.7734 25.3534C45.6932 24.8652 45.5745 24.4305 45.417 24.0389ZM40.1191 21.1249C38.5506 21.1249 37.2794 21.5264 36.2881 22.3134C35.3529 23.0557 34.7105 23.9642 34.3574 25.287H45.5332C45.2913 23.9324 44.7371 23.0267 43.873 22.3104L43.8721 22.3094L43.8701 22.3085C42.9565 21.5275 41.7144 21.1249 40.1191 21.1249ZM29.6914 22.536C29.4342 23.1017 29.223 23.7003 29.0576 24.3319L29.1631 23.9569C29.31 23.4626 29.4858 22.9892 29.6914 22.537V22.536ZM44.9463 23.1473C45.0467 23.2952 45.1381 23.4509 45.2227 23.6141C45.1381 23.4509 45.0467 23.2952 44.9463 23.1473ZM49.4199 21.0018C49.5429 21.1987 49.6601 21.4018 49.7715 21.6112C49.8271 21.7142 49.8814 21.8182 49.9336 21.9237C49.8814 21.8182 49.8271 21.7142 49.7715 21.6112C49.6601 21.4019 49.5429 21.1987 49.4199 21.0018ZM30.5928 20.9325C30.3886 21.2317 30.1978 21.5457 30.0215 21.8739C29.9628 21.9815 29.9066 22.0908 29.8516 22.201L30.0225 21.8739C30.1987 21.5459 30.3888 21.2324 30.5928 20.9335V20.9325ZM35.0371 17.3759C34.6914 17.5206 34.3561 17.6821 34.0312 17.8602C33.49 18.1493 32.9874 18.4789 32.5234 18.8485C32.2449 19.0704 31.9801 19.3066 31.7295 19.5575C31.4789 19.8083 31.2433 20.0745 31.0205 20.3544C31.8371 19.3285 32.8403 18.4972 34.0312 17.8612C34.4645 17.6236 34.9163 17.4154 35.3867 17.2372L35.0371 17.3759ZM46.9795 18.4012C47.0847 18.4759 47.1876 18.553 47.2891 18.6317C47.1876 18.553 47.0847 18.4759 46.9795 18.4012ZM44.7354 17.2089C45.1711 17.3747 45.5878 17.5669 45.9854 17.786C46.1894 17.8953 46.3876 18.0109 46.5801 18.1327C46.3875 18.0108 46.1895 17.8944 45.9854 17.785C45.5879 17.566 45.1709 17.3746 44.7354 17.2089ZM44.0195 16.9647C44.2166 17.024 44.4096 17.0898 44.5996 17.1591C44.4096 17.0898 44.2166 17.024 44.0195 16.9647ZM43.9336 16.9403C43.8438 16.9141 43.7534 16.8883 43.6621 16.8641C43.7534 16.8883 43.8438 16.9141 43.9336 16.9403ZM42.9316 16.6952C43.1663 16.7417 43.3963 16.7954 43.6221 16.8544C43.3963 16.7954 43.1663 16.7417 42.9316 16.6952ZM39.6865 16.4413C39.5434 16.445 39.4015 16.4504 39.2607 16.4579C38.5572 16.495 37.8829 16.579 37.2373 16.7089C38.1415 16.5269 39.1024 16.4354 40.1201 16.4354C40.2115 16.4354 40.3023 16.4369 40.3926 16.4384C40.3372 16.4375 40.2813 16.4358 40.2256 16.4354H40.1191C39.9738 16.4354 39.8296 16.4376 39.6865 16.4413ZM42.8535 16.6815C42.7591 16.6635 42.6642 16.6458 42.5684 16.6298C42.6642 16.6458 42.7591 16.6634 42.8535 16.6815ZM42.4307 16.6083C42.3475 16.5952 42.2639 16.5817 42.1797 16.5702C42.2639 16.5817 42.3475 16.5952 42.4307 16.6083ZM42.041 16.5526C41.9591 16.5423 41.8768 16.5323 41.7939 16.5233C41.8768 16.5323 41.9591 16.5422 42.041 16.5526ZM41.6904 16.5126C41.5851 16.5019 41.479 16.4917 41.3721 16.4833C41.479 16.4917 41.5851 16.5019 41.6904 16.5126ZM41.3457 16.4813C41.2189 16.4716 41.091 16.4635 40.9619 16.4569C41.091 16.4636 41.2189 16.4716 41.3457 16.4813ZM40.9365 16.4559C40.8234 16.4503 40.7095 16.4455 40.5947 16.4423C40.7095 16.4455 40.8234 16.4503 40.9365 16.4559Z" fill="#202020"/>
<path d="M110.16 12.9848C110.957 12.9848 111.71 12.6765 112.28 12.1153L119.354 3.80393L115.568 0L109.89 6.91032L105.601 3.80393L102.293 7.83116L108.247 12.301C108.787 12.7417 109.467 12.9848 110.16 12.9848Z" fill="#0EC189"/>
</svg>
