<svg width="121" height="134" viewBox="0 0 121 134" fill="none" xmlns="http://www.w3.org/2000/svg">
<path d="M60.4983 133.612C88.7178 133.612 111.594 130.005 111.594 125.555C111.594 121.105 88.7178 117.498 60.4983 117.498C32.2788 117.498 9.40234 121.105 9.40234 125.555C9.40234 130.005 32.2788 133.612 60.4983 133.612Z" fill="#E8E8E8"/>
<path d="M55.1323 94.0048C54.8341 93.7439 54.4447 93.6468 54.0735 93.5619C46.7223 91.8358 39.1977 91.0136 31.6792 91.1229L31.7188 90.7649C30.9399 92.4243 30.1062 106.409 28.6974 107.456C27.6142 108.263 26.2998 108.578 25.0583 109.033C22.3625 110.022 19.7853 111.849 18.4831 114.621C17.1808 117.394 17.4942 121.195 19.6971 123.167C20.5977 123.974 21.7175 124.423 22.8311 124.799C24.8362 125.479 26.8931 125.973 28.9682 126.328C32.5555 126.944 36.1916 127.147 39.8184 127.311C43.6888 127.487 47.5986 127.614 51.4081 126.829C52.1809 126.671 52.9659 126.468 53.6353 126.013C54.749 125.26 55.4153 123.904 55.8078 122.533C56.3981 120.476 56.4802 118.292 56.5228 116.138C56.5837 113.259 56.5776 98.0699 55.8078 95.3154C55.6709 94.8269 55.4944 94.3173 55.1293 94.0018L55.1323 94.0048Z" fill="#0EC189"/>
<path d="M102.297 113.459C100.839 110.765 98.1616 109.084 95.414 108.25C94.1483 107.868 92.8186 107.622 91.6928 106.879C90.2293 105.914 88.5984 91.9987 87.7251 90.3848L87.786 90.7397C80.2766 91.0582 72.8068 92.3051 65.5682 94.4468C65.2001 94.556 64.8197 94.6743 64.5368 94.9504C64.1899 95.2871 64.0408 95.8059 63.9343 96.3004C63.3227 99.0943 64.1838 114.259 64.409 117.129C64.5763 119.277 64.7832 121.455 65.4891 123.473C65.9607 124.82 66.7001 126.133 67.8563 126.822C68.5501 127.237 69.3442 127.395 70.1262 127.51C73.9721 128.078 77.8698 127.729 81.7249 127.334C85.3397 126.964 88.9544 126.555 92.5022 125.739C94.5529 125.266 96.5763 124.656 98.5419 123.864C99.6312 123.424 100.724 122.914 101.579 122.056C103.666 119.96 103.76 116.149 102.303 113.456L102.297 113.459Z" fill="#0EC189"/>
<path d="M3.42677 72.2231C-1.28028 56.6242 0.250199 38.7591 4.07182 24.1309C6.21388 15.937 8.43505 7.33967 16.3156 1.93373C23.5116 -3.002 31.0514 2.3736 34.5627 8.38931C37.5567 13.5162 38.6855 19.2649 41.853 24.3068C42.2759 24.9803 43.0061 24.6435 43.4199 24.2067C44.6401 22.9235 46.2983 22.0285 48.0022 21.3156C49.7548 20.5815 51.5987 19.9535 53.4487 19.4318C53.829 19.3225 54.2124 19.2194 54.5958 19.1223C55.2013 18.9676 55.8098 18.825 56.4214 18.6885C61.0432 17.6571 66.797 18.5854 70.366 21.6736C73.3783 24.2795 71.9604 25.4323 76.3023 24.5859C84.8341 22.9235 95.9947 21.707 98.7818 31.4723C98.4623 30.3529 107.52 31.0779 108.184 31.1355C110.073 31.2963 111.999 31.6725 113.545 32.6372C117.558 35.1399 119.177 39.6631 119.773 43.7585C121.021 52.3255 120.595 61.6721 119.01 70.1997C117.531 78.163 114.284 86.0323 108.248 92.2421C102.053 98.6128 93.3201 102.842 84.1282 105.141C65.2787 109.858 41.0801 110.341 24.4579 100.16C13.3186 93.3373 6.78591 83.3596 3.42981 72.2292L3.42677 72.2231Z" fill="#202020"/>
<path d="M58.526 44.322C58.526 44.322 58.4986 44.322 58.4834 44.322L39.853 42.6626C39.6004 42.6414 39.4179 42.4199 39.4392 42.1681C39.4605 41.9163 39.6796 41.7313 39.9351 41.7556L58.5656 43.415C58.8181 43.4362 59.0007 43.6577 58.9794 43.9094C58.9581 44.1461 58.7603 44.3251 58.526 44.3251V44.322Z" fill="white"/>
<path d="M68.1621 44.3221C67.9278 44.3221 67.73 44.1431 67.7087 43.9065C67.6874 43.6547 67.873 43.4363 68.1225 43.412L86.7529 41.7526C87.0055 41.7283 87.2245 41.9164 87.2489 42.1652C87.2732 42.4139 87.0846 42.6354 86.8351 42.6597L68.2047 44.3191C68.2047 44.3191 68.1773 44.3191 68.1621 44.3191V44.3221Z" fill="white"/>
<path d="M58.5334 55.7561L56.7443 55.1919C56.6956 57.4307 55.9684 59.8333 54.5262 62.0175C51.1457 67.1383 45.1243 69.1405 41.0805 66.4861C37.0368 63.8317 36.4982 57.5278 39.8787 52.407C40.3655 51.6668 40.9101 50.9963 41.4943 50.3926L31.5295 47.2559C25.3589 53.038 24.6591 62.6789 30.1116 69.2952C35.7984 76.1968 46.0218 77.1948 52.944 71.525C57.7606 67.5812 59.7048 61.4472 58.5334 55.7561Z" fill="white"/>
<path d="M39.8824 52.4075C36.502 57.5283 37.0375 63.8352 41.0843 66.4866C45.1281 69.1411 51.1496 67.1389 54.53 62.0181C55.9722 59.8339 56.6994 57.4342 56.7481 55.1924L41.4981 50.3901C40.9139 50.9938 40.3693 51.6673 39.8824 52.4045V52.4075Z" fill="#0EC189"/>
<path d="M63.0569 55.8876L64.8399 55.3112C64.9038 57.55 65.6493 59.9466 67.1097 62.1186C70.5297 67.2152 76.5664 69.1688 80.5889 66.4841C84.6113 63.7993 85.1012 57.4923 81.6812 52.3958C81.1883 51.6617 80.6376 50.9943 80.0503 50.3936L89.9908 47.178C96.207 52.9116 96.9829 62.5464 91.5791 69.2083C85.9471 76.1523 75.7327 77.2322 68.765 71.6139C63.918 67.7066 61.925 61.5878 63.0538 55.8906L63.0569 55.8876Z" fill="white"/>
<path d="M81.6851 52.3926C85.105 57.4891 84.6182 63.796 80.5927 66.4808C76.5703 69.1656 70.5336 67.2119 67.1136 62.1154C65.6531 59.9403 64.9076 57.5467 64.8438 55.3079L80.0542 50.3904C80.6414 50.991 81.1921 51.6584 81.6851 52.3926Z" fill="#0EC189"/>
<path d="M103.096 56.5091C103.059 56.5091 103.023 56.5091 102.986 56.5061C101.273 56.3787 100.458 53.066 100.312 52.4046C100.257 52.1589 100.412 51.9162 100.659 51.8616C100.905 51.81 101.149 51.9617 101.203 52.2074C101.498 53.5422 102.293 55.5414 103.056 55.599C103.288 55.6203 104.146 55.4231 105.381 52.2226C105.472 51.989 105.737 51.8707 105.971 51.9617C106.205 52.0527 106.324 52.3167 106.233 52.5502C105.192 55.2471 104.194 56.5122 103.096 56.5122V56.5091Z" fill="white"/>
<path d="M15.008 58.3839C14.9714 58.3839 14.9349 58.3839 14.8984 58.3809C13.1854 58.2535 12.3699 54.9408 12.2239 54.2764C12.1691 54.0307 12.3243 53.788 12.5708 53.7334C12.8172 53.6788 13.0606 53.8335 13.1154 54.0792C13.4105 55.414 14.2047 57.4132 14.9684 57.4708C15.1966 57.4829 16.0577 57.2949 17.293 54.0944C17.3843 53.8608 17.649 53.7425 17.8833 53.8335C18.1176 53.9245 18.2363 54.1884 18.145 54.422C17.1044 57.1189 16.1064 58.3839 15.008 58.3839Z" fill="white"/>
<path d="M108.889 65.3982C108.852 65.3982 108.816 65.3982 108.779 65.3951C107.066 65.2677 106.251 61.955 106.105 61.2906C106.05 61.0449 106.205 60.8022 106.452 60.7476C106.698 60.696 106.941 60.8477 106.996 61.0934C107.291 62.4282 108.082 64.4274 108.849 64.485C109.087 64.5002 109.939 64.3091 111.174 61.1086C111.265 60.875 111.53 60.7567 111.764 60.8477C111.998 60.9387 112.117 61.2026 112.026 61.4362C110.985 64.1331 109.987 65.3982 108.889 65.3982Z" fill="white"/>
<path d="M53.6828 82.5288C54.8299 83.0051 56.1261 83.1477 57.3584 83.1598C58.5907 83.1719 59.9173 83.0415 61.0948 82.5955L60.7419 82.55C61.7977 83.0081 62.9752 83.1446 64.1162 83.1325C65.2572 83.1204 66.4074 82.9717 67.4236 82.4833C67.953 82.2285 67.4906 81.4428 66.9642 81.6976C66.243 82.0434 65.4033 82.1617 64.6122 82.2072C63.7267 82.2588 62.8231 82.2163 61.9589 82.007C61.6151 81.9251 61.1496 81.643 60.8057 81.737C60.3889 81.8523 59.9933 81.9949 59.5643 82.0737C58.6515 82.2467 57.7113 82.2831 56.7833 82.2345C55.8096 82.183 54.8238 82.0282 53.9201 81.6521C53.3785 81.4276 53.1412 82.3073 53.6767 82.5288H53.6828Z" fill="white"/>
</svg>
