<svg width="18" height="18" viewBox="0 0 18 18" fill="none" xmlns="http://www.w3.org/2000/svg">
<mask id="mask0_4378_33287" style="mask-type:alpha" maskUnits="userSpaceOnUse" x="0" y="0" width="18" height="18">
<rect width="18" height="18" fill="#D9D9D9"/>
</mask>
<g mask="url(#mask0_4378_33287)">
<path d="M8.9903 1.82237C9.3157 1.82721 9.5756 2.09485 9.5708 2.42024C9.56596 2.74565 9.29814 3.00557 8.97273 3.00073C8.943 3.00029 8.91321 3.0001 8.88337 3.0001C5.63348 3.00014 2.99892 5.6347 2.99888 8.88459C2.99888 12.0838 5.55185 14.6867 8.73165 14.7672L8.88337 14.7693L8.97273 14.7687L9.03299 14.7708C9.33058 14.7965 9.56623 15.0439 9.5708 15.3489C9.57564 15.6744 9.31572 15.9422 8.9903 15.947L8.88337 15.9479L8.7011 15.9456C4.88451 15.8488 1.82031 12.7245 1.82031 8.88459C1.82035 4.98379 4.98257 1.82157 8.88337 1.82153C8.91907 1.82153 8.95472 1.82184 8.9903 1.82237ZM11.2175 14.2882C11.5162 14.159 11.8632 14.2965 11.9924 14.5952C12.1216 14.8939 11.9841 15.2407 11.6854 15.3699C11.6202 15.3981 11.5545 15.4254 11.4883 15.4517C11.1858 15.5717 10.8433 15.4239 10.7232 15.1215C10.6031 14.819 10.751 14.4763 11.0534 14.3562C11.1085 14.3343 11.1632 14.3117 11.2175 14.2882ZM13.1067 12.9824C13.3334 12.7488 13.7065 12.7432 13.94 12.9698C14.1736 13.1965 14.1792 13.5696 13.9526 13.8031C13.9031 13.8541 13.8529 13.9043 13.8019 13.9538L13.7565 13.9938C13.5223 14.179 13.1811 14.1603 12.9686 13.9414C12.742 13.7079 12.7475 13.3348 12.981 13.1082L13.1067 12.9824ZM14.355 11.0549C14.475 10.7524 14.8176 10.6044 15.12 10.7244C15.4225 10.8445 15.5706 11.1872 15.4505 11.4897C15.4242 11.5559 15.3969 11.6216 15.3687 11.6868C15.2394 11.9855 14.8926 12.1228 14.594 11.9936C14.2953 11.8644 14.1578 11.5176 14.287 11.2189C14.3104 11.1647 14.3331 11.1099 14.355 11.0549ZM15.3477 8.19716C15.6528 8.19263 15.9073 8.42089 15.9418 8.7176L15.9458 8.77766L15.9464 8.88459C15.9464 8.92027 15.9463 8.95596 15.9458 8.99152L15.9418 9.05179C15.9072 9.34847 15.6528 9.57656 15.3477 9.57202C15.0223 9.56718 14.7624 9.29954 14.7672 8.97416L14.7679 8.88459C14.7679 8.85475 14.7677 8.82496 14.7672 8.79524C14.7624 8.46982 15.0223 8.202 15.3477 8.19716ZM15.3687 6.08255C15.3969 6.14775 15.4242 6.21348 15.4505 6.27968C15.5705 6.58216 15.4225 6.92467 15.12 7.04475C14.8176 7.16478 14.4751 7.01699 14.355 6.71453C14.3331 6.65944 14.3104 6.60473 14.287 6.55047L14.8279 6.31651L15.3687 6.08255ZM14.5938 5.77557C14.8925 5.64634 15.2394 5.78385 15.3687 6.08255L14.287 6.55047C14.1578 6.25179 14.2951 5.9048 14.5938 5.77557ZM12.9686 3.82795C13.1811 3.60903 13.5222 3.59035 13.7565 3.77563L13.8019 3.81539L13.9526 3.96627L13.9923 4.01168C14.1776 4.24595 14.159 4.58709 13.94 4.79956C13.7064 5.02616 13.3334 5.02055 13.1067 4.787L12.981 4.66124L12.9399 4.61708C12.7477 4.38849 12.7561 4.04692 12.9686 3.82795ZM10.7232 2.64791C10.8433 2.34544 11.1858 2.19765 11.4883 2.3177C11.5214 2.33083 11.5544 2.34405 11.5873 2.35767L11.6854 2.39931L11.7396 2.4261C12.0003 2.57178 12.1135 2.89419 11.9924 3.17421C11.8632 3.4729 11.5162 3.61021 11.2175 3.48099C11.1633 3.45753 11.1085 3.43484 11.0534 3.41298C10.751 3.29287 10.6032 2.95037 10.7232 2.64791Z" fill="#0EC189"/>
<path d="M6.31719 6.31597C6.56825 6.06492 6.97539 6.06492 7.22644 6.31597L8.72184 7.81158C8.8496 7.7723 8.98529 7.75111 9.12593 7.7511C9.88432 7.75111 10.4993 8.3659 10.4993 9.12429C10.4993 9.88271 9.88434 10.4977 9.12593 10.4977C8.36753 10.4977 7.75274 9.88269 7.75274 9.12429C7.75275 8.98388 7.77385 8.8484 7.81301 8.72083L6.31719 7.22522C6.06614 6.97417 6.06614 6.56703 6.31719 6.31597Z" fill="#0EC189"/>
</g>
</svg>
