<svg width="24" height="24" viewBox="0 0 24 24" fill="none" xmlns="http://www.w3.org/2000/svg">
<mask id="mask0_3750_24810" style="mask-type:alpha" maskUnits="userSpaceOnUse" x="0" y="0" width="24" height="24">
<rect width="24" height="24" fill="#D9D9D9"/>
</mask>
<g mask="url(#mask0_3750_24810)">
<path d="M5.25042 18.8833C5.03792 18.8833 4.85983 18.8114 4.71617 18.6678C4.57233 18.5239 4.50042 18.3457 4.50042 18.133C4.50042 17.9205 4.57233 17.7424 4.71617 17.5988C4.85983 17.4553 5.03792 17.3835 5.25042 17.3835H6.30817V9.92178C6.30817 8.57695 6.72325 7.38786 7.55342 6.35453C8.38342 5.3212 9.44908 4.66028 10.7504 4.37178V3.74878C10.7504 3.40161 10.8718 3.10645 11.1147 2.86328C11.3575 2.62028 11.6523 2.49878 11.9992 2.49878C12.3462 2.49878 12.6414 2.62028 12.8849 2.86328C13.1286 3.10645 13.2504 3.40161 13.2504 3.74878V4.37178C14.5518 4.66028 15.6174 5.3212 16.4474 6.35453C17.2776 7.38786 17.6927 8.57695 17.6927 9.92178V17.3835H18.7504C18.9629 17.3835 19.141 17.4554 19.2847 17.599C19.4285 17.7429 19.5004 17.9211 19.5004 18.1338C19.5004 18.3463 19.4285 18.5244 19.2847 18.668C19.141 18.8115 18.9629 18.8833 18.7504 18.8833H5.25042ZM7.80817 17.3835H16.1927V9.92178C16.1927 8.76411 15.7834 7.77603 14.9649 6.95753C14.1463 6.13886 13.1581 5.72953 12.0004 5.72953C10.8427 5.72953 9.85458 6.13886 9.03592 6.95753C8.21742 7.77603 7.80817 8.76411 7.80817 9.92178V17.3835ZM3.37067 9.91228C3.15467 9.91228 2.97483 9.8312 2.83117 9.66903C2.68767 9.50686 2.62617 9.31611 2.64667 9.09678C2.74783 7.94295 3.0465 6.8622 3.54267 5.85453C4.03883 4.84686 4.6805 3.96228 5.46767 3.20078C5.63317 3.05595 5.81975 2.98378 6.02742 2.98428C6.23508 2.98495 6.40617 3.07153 6.54067 3.24403C6.67533 3.41653 6.73242 3.60403 6.71192 3.80653C6.69142 4.00903 6.5985 4.18786 6.43317 4.34303C5.80883 4.96603 5.30108 5.68428 4.90992 6.49778C4.51892 7.31128 4.27283 8.18661 4.17167 9.12378C4.14467 9.34295 4.05842 9.5292 3.91292 9.68253C3.76742 9.8357 3.58667 9.91228 3.37067 9.91228ZM20.6349 9.91228C20.4158 9.91228 20.2334 9.8357 20.0879 9.68253C19.9424 9.5292 19.8562 9.34295 19.8292 9.12378C19.728 8.18661 19.4835 7.31286 19.0957 6.50253C18.7078 5.69236 18.2018 4.9757 17.5774 4.35253C17.4098 4.19803 17.313 4.01778 17.2872 3.81178C17.2613 3.60578 17.3158 3.41653 17.4504 3.24403C17.5851 3.07153 17.7578 2.98661 17.9687 2.98928C18.1795 2.99178 18.3677 3.06545 18.5332 3.21028C19.3203 3.97195 19.962 4.85495 20.4582 5.85928C20.9543 6.86378 21.253 7.94295 21.3542 9.09678C21.3747 9.31611 21.3131 9.50686 21.1694 9.66903C21.0256 9.8312 20.8474 9.91228 20.6349 9.91228Z" fill="#202020"/>
<path d="M10.7219 21.16C11.0751 21.514 11.5004 21.691 11.9979 21.691C12.4956 21.691 12.9216 21.5145 13.2759 21.1613C13.6302 20.8081 13.8074 20.3821 13.8074 19.8833H10.1919C10.1919 20.3805 10.3686 20.806 10.7219 21.16Z" fill="#202020"/>
</g>
</svg>
