<svg width="24" height="24" viewBox="0 0 24 24" fill="none" xmlns="http://www.w3.org/2000/svg">
<mask id="mask0_3734_24994" style="mask-type:alpha" maskUnits="userSpaceOnUse" x="0" y="0" width="24" height="24">
<rect width="24" height="24" fill="#D9D9D9"/>
</mask>
<g mask="url(#mask0_3734_24994)">
<path d="M5.19251 21.6155C4.68751 21.6155 4.26001 21.4405 3.91001 21.0905C3.56001 20.7405 3.38501 20.313 3.38501 19.808V16.6138C3.38501 16.3996 3.42184 16.1871 3.49551 15.9763C3.56918 15.7655 3.68293 15.578 3.83676 15.4138L5.83876 13.154C5.97726 12.9887 6.15543 12.9035 6.37326 12.8983C6.59126 12.8933 6.77784 12.9683 6.93301 13.1233C7.07151 13.2618 7.14584 13.4291 7.15601 13.6253C7.16634 13.8215 7.10226 13.9971 6.96376 14.1523L4.99251 16.385H19.008L17.0868 14.2023C16.9483 14.0471 16.8842 13.8715 16.8945 13.6753C16.9047 13.4791 16.979 13.3118 17.1175 13.1733C17.2727 13.0183 17.4593 12.9433 17.6773 12.9483C17.8951 12.9535 18.0733 13.0387 18.2118 13.204L20.1638 15.4138C20.3176 15.578 20.4313 15.7655 20.505 15.9763C20.5787 16.1871 20.6155 16.3996 20.6155 16.6138V19.808C20.6155 20.313 20.4405 20.7405 20.0905 21.0905C19.7405 21.4405 19.313 21.6155 18.808 21.6155H5.19251ZM5.19251 20.1158H18.808C18.8913 20.1158 18.9634 20.0853 19.0243 20.0243C19.0853 19.9635 19.1158 19.8914 19.1158 19.808V17.8848H4.88476V19.808C4.88476 19.8914 4.91526 19.9635 4.97626 20.0243C5.03709 20.0853 5.10918 20.1158 5.19251 20.1158ZM10.76 14.1445L7.50426 10.8695C7.15293 10.5182 6.98143 10.0922 6.98976 9.59155C6.99809 9.09105 7.17793 8.66513 7.52926 8.3138L12.1695 3.67329C12.5208 3.32213 12.9478 3.14138 13.4503 3.13104C13.9528 3.12088 14.3797 3.29138 14.731 3.64254L17.9963 6.90805C18.3476 7.25938 18.5284 7.68113 18.5388 8.1733C18.5489 8.66563 18.3784 9.08746 18.0273 9.4388L13.306 14.1598C12.9547 14.5111 12.5303 14.6842 12.033 14.679C11.5355 14.674 11.1112 14.4959 10.76 14.1445ZM16.933 8.41005C16.9842 8.35871 17.0098 8.28496 17.0098 8.18879C17.0098 8.09263 16.9842 8.01888 16.933 7.96755L13.6868 4.72154C13.6356 4.67021 13.5619 4.64455 13.4658 4.64455C13.3696 4.64455 13.2958 4.67021 13.2445 4.72154L8.57326 9.39255C8.52209 9.44388 8.49651 9.51763 8.49651 9.61379C8.49651 9.70996 8.52209 9.78371 8.57326 9.83505L11.8195 13.081C11.8708 13.1324 11.9446 13.158 12.0408 13.158C12.1369 13.158 12.2106 13.1324 12.2618 13.081L16.933 8.41005Z" fill="currentColor"/>
</g>
<mask id="mask1_3734_24994" style="mask-type:alpha" maskUnits="userSpaceOnUse" x="0" y="0" width="24" height="24">
<rect width="24" height="24" fill="#0EC189"/>
</mask>
<g mask="url(#mask1_3734_24994)">
<path d="M10.7605 14.1445L7.50478 10.8695C7.15345 10.5182 6.98195 10.0922 6.99028 9.59155C6.99861 9.09105 7.17845 8.66513 7.52978 8.3138L12.17 3.67329C12.5214 3.32213 12.9483 3.14138 13.4508 3.13104C13.9533 3.12088 14.3802 3.29138 14.7315 3.64254L17.9968 6.90805C18.3481 7.25938 18.5289 7.68113 18.5393 8.1733C18.5494 8.66563 18.3789 9.08746 18.0278 9.4388L13.3065 14.1598C12.9552 14.5111 12.5309 14.6842 12.0335 14.679C11.536 14.674 11.1117 14.4959 10.7605 14.1445ZM16.9335 8.41005C16.9847 8.35871 17.0103 8.28496 17.0103 8.1888C17.0103 8.09263 16.9847 8.01888 16.9335 7.96755L13.6873 4.72154C13.6361 4.67021 13.5624 4.64455 13.4663 4.64455C13.3701 4.64455 13.2964 4.67021 13.245 4.72154L8.57378 9.39255C8.52261 9.44388 8.49703 9.51763 8.49703 9.6138C8.49703 9.70996 8.52261 9.78371 8.57378 9.83505L11.82 13.081C11.8714 13.1324 11.9451 13.158 12.0413 13.158C12.1374 13.158 12.2111 13.1324 12.2623 13.081L16.9335 8.41005Z" fill="currentColor"/>
</g>
</svg>
