<svg width="24" height="24" viewBox="0 0 24 24" fill="none" xmlns="http://www.w3.org/2000/svg">
<mask id="mask0_3734_24996" style="mask-type:alpha" maskUnits="userSpaceOnUse" x="0" y="0" width="24" height="24">
<rect width="24" height="24" fill="#D9D9D9"/>
</mask>
<g mask="url(#mask0_3734_24996)">
<path d="M11.9885 2.42958C12.4223 2.43603 12.7688 2.79289 12.7625 3.22674C12.756 3.66063 12.3989 4.00718 11.965 4.00073C11.9254 4.00014 11.8857 3.9999 11.8459 3.9999C7.51268 3.99995 3.99995 7.51268 3.9999 11.8459C3.9999 16.1115 7.40386 19.582 11.6436 19.6893L11.8459 19.6921L11.965 19.6913L12.0454 19.6941C12.4422 19.7284 12.7564 20.0582 12.7625 20.465C12.7689 20.8989 12.4223 21.256 11.9885 21.2624L11.8459 21.2636L11.6029 21.2605C6.51407 21.1315 2.42847 16.9657 2.42847 11.8459C2.42852 6.64481 6.64481 2.42852 11.8459 2.42847C11.8935 2.42847 11.941 2.42888 11.9885 2.42958ZM14.958 19.0507C15.3563 18.8784 15.819 19.0617 15.9912 19.46C16.1635 19.8582 15.9802 20.3206 15.5819 20.4929C15.495 20.5305 15.4073 20.567 15.3191 20.602C14.9158 20.762 14.4591 20.565 14.299 20.1617C14.1389 19.7584 14.336 19.3015 14.7393 19.1414C14.8127 19.1122 14.8857 19.082 14.958 19.0507ZM17.477 17.3096C17.7792 16.9982 18.2767 16.9907 18.5881 17.2929C18.8995 17.5951 18.907 18.0925 18.6048 18.4039C18.5389 18.4719 18.4719 18.5388 18.4039 18.6048L18.3434 18.6581C18.0311 18.9051 17.5762 18.8802 17.2929 18.5883C16.9907 18.277 16.998 17.7795 17.3093 17.4773L17.477 17.3096ZM19.1414 14.7396C19.3015 14.3363 19.7582 14.139 20.1614 14.299C20.5648 14.4591 20.7621 14.9161 20.602 15.3194C20.567 15.4076 20.5305 15.4953 20.4929 15.5822C20.3206 15.9804 19.8582 16.1635 19.46 15.9912C19.0618 15.819 18.8785 15.3566 19.0507 14.9583C19.082 14.886 19.1122 14.813 19.1414 14.7396ZM20.465 10.9293C20.8718 10.9233 21.2111 11.2276 21.2572 11.6232L21.2625 11.7033L21.2633 11.8459C21.2633 11.8934 21.2632 11.941 21.2625 11.9885L21.2572 12.0688C21.211 12.4644 20.8718 12.7685 20.465 12.7625C20.0312 12.756 19.6846 12.3991 19.691 11.9653L19.6919 11.8459C19.6919 11.8061 19.6916 11.7664 19.691 11.7267C19.6846 11.2928 20.0311 10.9358 20.465 10.9293ZM20.4929 8.10983C20.5305 8.19676 20.567 8.28439 20.602 8.37266C20.7621 8.77597 20.5647 9.23265 20.1614 9.39275C19.7582 9.5528 19.3015 9.35575 19.1414 8.95246C19.1122 8.87901 19.082 8.80606 19.0507 8.73371L19.7719 8.42177L20.4929 8.10983ZM19.4597 7.70051C19.858 7.52821 20.3206 7.71156 20.4929 8.10983L19.0507 8.73371C18.8784 8.33547 19.0615 7.87282 19.4597 7.70051ZM17.2929 5.10369C17.5762 4.8118 18.031 4.78689 18.3434 5.03394L18.4039 5.08695L18.6048 5.28812L18.6578 5.34867C18.9048 5.66102 18.88 6.11587 18.5881 6.39917C18.2766 6.7013 17.7792 6.69382 17.477 6.38243L17.3093 6.21474L17.2546 6.15587C16.9983 5.85107 17.0095 5.39564 17.2929 5.10369ZM14.299 3.53031C14.4591 3.12701 14.9158 2.92996 15.3191 3.09002C15.3632 3.10753 15.4073 3.12516 15.4511 3.14331L15.5819 3.19884L15.6542 3.23455C16.0018 3.4288 16.1528 3.85867 15.9912 4.23204C15.8189 4.63029 15.3563 4.81337 14.958 4.64108C14.8857 4.60979 14.8127 4.57955 14.7393 4.5504C14.3361 4.39025 14.1389 3.93358 14.299 3.53031Z" fill="currentColor"/>
<path d="M8.42415 8.42293C8.75888 8.08819 9.30174 8.08819 9.63648 8.42293L11.6303 10.4171C11.8007 10.3647 11.9816 10.3364 12.1691 10.3364C13.1803 10.3364 14.0003 11.1562 14.0003 12.1673C14.0003 13.1786 13.1803 13.9985 12.1691 13.9985C11.1579 13.9985 10.3382 13.1785 10.3382 12.1673C10.3382 11.9801 10.3664 11.7995 10.4186 11.6294L8.42415 9.63526C8.08941 9.30052 8.08941 8.75766 8.42415 8.42293Z" fill="currentColor"/>
</g>
</svg>
