<svg width="24" height="24" viewBox="0 0 24 24" fill="none" xmlns="http://www.w3.org/2000/svg">
<mask id="mask0_3734_24993" style="mask-type:alpha" maskUnits="userSpaceOnUse" x="0" y="0" width="24" height="24">
<path d="M0 0H24V24H0V0Z" fill="#D9D9D9"/>
</mask>
<g mask="url(#mask0_3734_24993)">
<path d="M3.25 20.4995C3.0375 20.4995 2.85942 20.4276 2.71575 20.2838C2.57192 20.1399 2.5 19.9618 2.5 19.7493C2.5 19.5366 2.57192 19.3585 2.71575 19.215C2.85942 19.0713 3.0375 18.9995 3.25 18.9995H20.75C20.9625 18.9995 21.1406 19.0714 21.2843 19.2153C21.4281 19.3591 21.5 19.5373 21.5 19.7498C21.5 19.9624 21.4281 20.1405 21.2843 20.284C21.1406 20.4277 20.9625 20.4995 20.75 20.4995H3.25Z" fill="currentColor"/>
<path d="M3.8655 17.2508C4.109 17.4938 4.40425 17.6152 4.75125 17.6152C5.09808 17.6152 5.39292 17.4938 5.63575 17.2508C5.87858 17.0078 6 16.7126 6 16.3652V12.75C6 12.4028 5.87817 12.1077 5.6345 11.8645C5.391 11.6215 5.09583 11.5 4.749 11.5C4.402 11.5 4.10708 11.6215 3.86425 11.8645C3.62142 12.1077 3.5 12.4028 3.5 12.75V16.3652C3.5 16.7126 3.62183 17.0078 3.8655 17.2508Z" fill="currentColor"/>
<path d="M8.69225 17.2508C8.93592 17.4938 9.23117 17.6152 9.578 17.6152C9.925 17.6152 10.2199 17.4938 10.4627 17.2508C10.7056 17.0078 10.827 16.7126 10.827 16.3652V7.75C10.827 7.40283 10.7052 7.10767 10.4615 6.8645C10.218 6.6215 9.92275 6.5 9.57575 6.5C9.22892 6.5 8.93408 6.6215 8.69125 6.8645C8.44842 7.10767 8.327 7.40283 8.327 7.75V16.3652C8.327 16.7126 8.44875 17.0078 8.69225 17.2508Z" fill="currentColor"/>
<path d="M13.5288 17.2508C13.7724 17.4938 14.0677 17.6152 14.4145 17.6152C14.7615 17.6152 15.0564 17.4938 15.2992 17.2508C15.5421 17.0078 15.6635 16.7126 15.6635 16.3652V10.75C15.6635 10.4028 15.5417 10.1077 15.298 9.8645C15.0545 9.6215 14.7592 9.5 14.4122 9.5C14.0654 9.5 13.7706 9.6215 13.5278 9.8645C13.2849 10.1077 13.1635 10.4028 13.1635 10.75V16.3652C13.1635 16.7126 13.2853 17.0078 13.5288 17.2508Z" fill="currentColor"/>
<path d="M18.3643 17.2512C18.6078 17.4942 18.9029 17.6157 19.2498 17.6157C19.5968 17.6157 19.8917 17.4942 20.1345 17.2512C20.3774 17.0082 20.4988 16.7131 20.4988 16.3657V4.75049C20.4988 4.40332 20.3769 4.10816 20.1333 3.86499C19.8898 3.62199 19.5945 3.50049 19.2475 3.50049C18.9007 3.50049 18.6059 3.62199 18.363 3.86499C18.1202 4.10816 17.9988 4.40332 17.9988 4.75049V16.3657C17.9988 16.7131 18.1206 17.0082 18.3643 17.2512Z" fill="currentColor"/>
</g>
</svg>
