<svg width="22" height="22" viewBox="0 0 22 22" fill="none" xmlns="http://www.w3.org/2000/svg">
<rect x="22" y="22" width="22" height="22" rx="11" transform="rotate(-180 22 22)" fill="#F7F7F7"/>
<path d="M13.9911 10.9952L8.36696 5.37106C8.17567 5.17977 8.08321 4.95659 8.08958 4.70153C8.09596 4.44647 8.1948 4.22329 8.38609 4.03199C8.57739 3.8407 8.80057 3.74505 9.05563 3.74505C9.31069 3.74505 9.53387 3.8407 9.72516 4.03199L15.6171 9.90477C15.7701 10.0578 15.8849 10.23 15.9614 10.4213C16.0379 10.6126 16.0762 10.8039 16.0762 10.9952C16.0762 11.1864 16.0379 11.3777 15.9614 11.569C15.8849 11.7603 15.7701 11.9325 15.6171 12.0855L9.72516 17.9774C9.53386 18.1687 9.3075 18.2612 9.04606 18.2548C8.78462 18.2484 8.55826 18.1496 8.36696 17.9583C8.17567 17.767 8.08002 17.5438 8.08002 17.2888C8.08002 17.0337 8.17567 16.8105 8.36696 16.6192L13.9911 10.9952Z" fill="#A8A8A8"/>
</svg>
