<svg width="22" height="22" viewBox="0 0 22 22" fill="none" xmlns="http://www.w3.org/2000/svg">
<rect width="22" height="22" rx="11" fill="#F7F7F7"/>
<path d="M8.00895 11.0048L13.633 16.6289C13.8243 16.8202 13.9168 17.0434 13.9104 17.2985C13.904 17.5535 13.8052 17.7767 13.6139 17.968C13.4226 18.1593 13.1994 18.2549 12.9444 18.2549C12.6893 18.2549 12.4661 18.1593 12.2748 17.968L6.38294 12.0952C6.2299 11.9422 6.11512 11.77 6.03861 11.5787C5.96209 11.3874 5.92383 11.1961 5.92383 11.0048C5.92383 10.8136 5.96209 10.6223 6.03861 10.431C6.11512 10.2397 6.2299 10.0675 6.38294 9.91446L12.2748 4.02256C12.4661 3.83126 12.6925 3.73881 12.9539 3.74518C13.2154 3.75156 13.4417 3.85039 13.633 4.04169C13.8243 4.23299 13.92 4.45616 13.92 4.71122C13.92 4.96628 13.8243 5.18946 13.633 5.38076L8.00895 11.0048Z" fill="#5B5B5B"/>
</svg>
