<svg width="28" height="28" viewBox="0 0 28 28" fill="none" xmlns="http://www.w3.org/2000/svg">
<mask id="mask0_4642_3039" style="mask-type:alpha" maskUnits="userSpaceOnUse" x="0" y="0" width="28" height="28">
<rect width="27.9996" height="27.9996" fill="#D9D9D9"/>
</mask>
<g mask="url(#mask0_4642_3039)">
<path d="M3.53046 23.3045C3.93879 23.7129 4.43763 23.917 5.02698 23.917H22.9753C23.5647 23.917 24.0635 23.7129 24.4718 23.3045C24.8801 22.8962 25.0843 22.3974 25.0843 21.808V8.52629C25.0843 7.93694 24.8801 7.4381 24.4718 7.02977C24.0635 6.62145 23.5647 6.41728 22.9753 6.41728H19.4126L17.5512 4.40494C17.362 4.20032 17.0959 4.08398 16.8171 4.08398H11.1852C10.9064 4.08398 10.6403 4.20032 10.4511 4.40494L8.58964 6.41728H5.02698C4.43763 6.41728 3.93879 6.62145 3.53046 7.02977C3.12213 7.4381 2.91797 7.93694 2.91797 8.52629V21.808C2.91797 22.3974 3.12213 22.8962 3.53046 23.3045Z" fill="#A8A8A8"/>
<path d="M16.6249 15.166C16.6249 13.7162 15.4497 12.541 13.9999 12.541C12.5502 12.541 11.375 13.7162 11.375 15.166C11.375 16.6157 12.5502 17.7909 13.9999 17.7909C15.4497 17.7909 16.6249 16.6157 16.6249 15.166ZM18.3749 15.166C18.3749 17.5822 16.4161 19.5409 13.9999 19.5409C11.5837 19.5409 9.625 17.5822 9.625 15.166C9.625 12.7497 11.5837 10.791 13.9999 10.791C16.4161 10.791 18.3749 12.7497 18.3749 15.166Z" fill="#F7F7F7"/>
</g>
</svg>
