<svg width="11" height="26" viewBox="0 0 11 26" fill="none" xmlns="http://www.w3.org/2000/svg">
<path d="M2.725 13.0065L10.075 20.3565C10.325 20.6065 10.4458 20.8981 10.4375 21.2315C10.4292 21.5648 10.3 21.8565 10.05 22.1065C9.8 22.3565 9.50833 22.4815 9.175 22.4815C8.84167 22.4815 8.55 22.3565 8.3 22.1065L0.6 14.4315C0.4 14.2315 0.25 14.0065 0.15 13.7565C0.05 13.5065 0 13.2565 0 13.0065C0 12.7565 0.05 12.5065 0.15 12.2565C0.25 12.0065 0.4 11.7815 0.6 11.5815L8.3 3.88146C8.55 3.63146 8.84583 3.51062 9.1875 3.51896C9.52917 3.52729 9.825 3.65646 10.075 3.90646C10.325 4.15646 10.45 4.44812 10.45 4.78146C10.45 5.11479 10.325 5.40646 10.075 5.65646L2.725 13.0065Z" fill="#202020"/>
</svg>
